<svg id="Layer_1" data-name="Layer 1" xmlns="http://www.w3.org/2000/svg" viewBox="0 0 1059.36 1026.81"><defs><style>.cls-1{fill:#fff;}</style></defs><path class="cls-1" d="M1011.12,723.68,746.67,621.94a2,2,0,0,0-1.84.21L548.32,749.66c-43.75,28.38-111.53,31.51-157.63,7.17L287,702.32a2.33,2.33,0,0,0-1.85-.05l-261,123.82c-33,15.58-32.12,39,2,52.1l364,140c34.07,13.12,88.58,11,121.57-4.61l501.41-237.79C1046.11,760.16,1045.19,736.75,1011.12,723.68ZM94.82,829.32c2.92-4.76,10.1-8,16-7.32s8.4,5.22,5.43,10.09-10.19,8-16.09,7.27S91.85,834.08,94.82,829.32Zm48.11,27.41c-5.84,6.81-2.41,14.91-2.41,14.91-.56,19.31-32.2,17.86-36.2,12.19a41,41,0,0,0-9.78-9.48,81.9,81.9,0,0,0-16.75-4.76c-9.74-1.74-15.17-19.78,16.44-22.44,0,0,13.63,1.07,24.39-3.13s21,.46,21,.46S148.82,849.92,142.93,856.73Zm-12.24-20.14c-6.15-2.2-6.2-8.19-.11-13.42s16-7.73,22.19-5.58,6.25,8.2.15,13.47-16.09,7.79-22.23,5.53Zm38.93,34.64c-8.2,1.43-15.62-.36-16.55-4.1s5-7.84,13.17-9.38,15.68.36,16.65,4.1-5,7.94-13.27,9.38Zm8.25-23.67c-8.51,3.84-18.6,4.1-22.65.61s-.51-9.42,7.95-13.32,18.59-4.15,22.64-.66.51,9.48-7.94,13.37ZM871.93,729.68c3-4.77,10.14-8,16-7.33s8.45,5.23,5.43,10.09-10.15,8-16.09,7.28S869,734.5,871.93,729.68Zm48.16,27.41c-5.84,6.81-2.41,14.9-2.41,14.9-.62,19.32-32.17,17.88-36.22,12.2a41.79,41.79,0,0,0-9.84-9.48,81.47,81.47,0,0,0-16.7-4.77c-9.73-1.74-15.16-19.77,16.45-22.43,0,0,13.62,1.07,24.38-3.13s21,.46,21,.46,9.18,5.43,3.34,12.25ZM907.79,737c-6.09-2.2-6.15-8.19,0-13.42s16-7.74,22.13-5.58,6.3,8.19.16,13.47-16,7.79-22.24,5.53Zm39,34.63c-8.25,1.44-15.63-.35-16.55-4.09s5-7.84,13.17-9.38,15.67.36,16.65,4.1-5,7.94-13.28,9.37ZM955,747.92c-8.45,3.84-18.54,4.09-22.59.61s-.51-9.43,7.89-13.32,18.6-4.15,22.7-.61.5,9.42-8,13.32Zm79.15-431.31L703.64,139.82c-7-3.74-14.29,4.3-10,10.86l58.56,89.5A7.67,7.67,0,0,1,745.79,252H622.7a13.27,13.27,0,0,0-13.27,13.27h0V426.65A23.44,23.44,0,0,1,586,450.07H456.76a23.48,23.48,0,0,1-23.44-23.42v-163A11.66,11.66,0,0,0,421.64,252h-51a49.63,49.63,0,0,0-27.16,8.09l-303,200C9.85,480.24,11.19,510.67,43.51,528L413.63,725.84c32.27,17.31,83.4,15,114-5.23L1037.2,384.5c30.63-20.19,29.3-50.62-3.08-67.89ZM130.13,456c4.25-6.82,14.45-11.53,22.9-10.4s12,7.43,7.74,14.29-14.5,11.48-23,10.4-11.9-7.53-7.7-14.29Zm68.6,39c-8.3,9.79-3.38,21.21-3.38,21.21-.87,27.57-45.9,25.47-51.59,17.37a58.54,58.54,0,0,0-14-13.47A117.48,117.48,0,0,0,106,513.31c-14-2.49-21.67-28.2,23.33-31.89,0,0,19.52,1.43,34.74-4.51,15.37-6,30,.62,30,.62s13,7.78,4.66,17.46Zm-17.41-28.6c-8.76-3.13-8.81-11.68-.2-19.16s22.79-11.07,31.6-8,9,11.78.21,19.26S190.06,469.5,181.32,466.36Zm55.43,49.33c-11.68,2-22.23-.56-23.56-5.84s7.07-11.27,18.8-13.37,22.33.46,23.72,5.79-7.2,11.32-19,13.42Zm11.73-33.81c-12.09,5.48-26.48,5.89-32.27.92s-.62-13.47,11.37-18.95,26.49-5.89,32.28-.93.69,13.58-11.4,19ZM857.43,326.5c4.25-6.87,14.45-11.53,23-10.45s11.94,7.45,7.69,14.24-14.5,11.53-23,10.45S853.32,333.21,857.43,326.5Zm68.6,39c-8.3,9.78-3.38,21.2-3.38,21.2-.87,27.57-45.85,25.47-51.59,17.37a58.92,58.92,0,0,0-14-13.47,114.6,114.6,0,0,0-23.82-6.76c-13.93-2.51-21.62-28.28,23.36-32,0,0,19.52,1.48,34.79-4.46s30,.62,30,.62,13,7.75,4.64,17.5Zm-17.42-28.64c-8.76-3.13-8.81-11.73-.2-19.21s22.79-11,31.66-7.94,9,11.73.15,19.26-22.85,11-31.61,7.88ZM964,386.14c-11.68,2.05-22.18-.51-23.56-5.79s7.07-11.27,18.8-13.37,22.38.46,23.72,5.79-7.18,11.31-19,13.36Zm11.73-33.76c-12.09,5.48-26.48,5.89-32.22.92s-.67-13.47,11.32-19,26.49-5.95,32.28-.92.71,13.51-11.38,19ZM646,193.2,528,3.65a7.8,7.8,0,0,0-13.21,0L396.72,193.2a7.78,7.78,0,0,0,6.6,11.88H475.2a7.77,7.77,0,0,1,7.78,7.74v165h69a7.77,7.77,0,0,0,7.74-7.79V212.82a7.77,7.77,0,0,1,7.78-7.74h71.88A7.75,7.75,0,0,0,646,193.2Z" transform="translate(0.04 0)"/></svg>