<svg id="Layer_1" data-name="Layer 1" xmlns="http://www.w3.org/2000/svg" viewBox="0 0 936.61 1053.24"><defs><style>.cls-1{fill:#fff;}</style></defs><path class="cls-1" d="M918.39,125.74l-37.48-3.81a106.28,106.28,0,0,1,20.68,63.61l-2.73,805.85A106.45,106.45,0,0,1,868.2,1066a99.61,99.61,0,0,0,63.08-82.86l76.19-748A99.71,99.71,0,0,0,918.39,125.74Z" transform="translate(-71.39 -13.68)"/><path class="cls-1" d="M716.19,15.44,184.77,13.68A110.13,110.13,0,0,0,74.22,123.48L71.39,954.55a110.2,110.2,0,0,0,109.82,110.61l531.4,1.76a110.15,110.15,0,0,0,110.57-109.8L826,126.05A110.2,110.2,0,0,0,716.19,15.44ZM469.65,404.93c7.16-32.7,33.8-54.63,59.49-49s40.7,36.69,33.53,69.38-33.81,54.65-59.49,49S462.47,437.62,469.65,404.93ZM368.18,357c26.5-4,52.1,20.13,57.16,53.85s-12.3,64.29-38.8,68.27-52.1-20.13-57.16-53.85S341.69,361,368.18,357ZM254.05,525c-12-25.58-5.42-53.94,14.67-63.36s46.11,3.67,58.08,29.24,5.43,53.94-14.65,63.36S266,550.54,254.05,525ZM511.78,723.84A262.17,262.17,0,0,0,444.58,707a262.09,262.09,0,0,0-67.21,16.87c-35.08,14.1-127.84-47.26-48.95-125.42,0,0,43.09-24.84,55.52-64.29s60.64-42.3,60.64-42.3,48.2,2.86,60.63,42.3,55.51,64.29,55.51,64.29C639.6,676.58,546.84,737.94,511.78,723.84Zm126.74-187.6c-16.33,22.84-44.13,31-62.08,18.13s-19.26-41.74-2.93-64.59,44.12-31,62-18.13S654.84,513.39,638.52,536.24Z" transform="translate(-71.39 -13.68)"/></svg>