<svg id="Layer_1" data-name="Layer 1" xmlns="http://www.w3.org/2000/svg" viewBox="0 0 1006.74 1056.61"><defs><style>.cls-1{fill:#fff;}</style></defs><path class="cls-1" d="M660.24,195,548.08,14.88a7.4,7.4,0,0,0-12.55,0L423.33,195a7.36,7.36,0,0,0,6.25,11.27h68.31a7.39,7.39,0,0,1,7.39,7.38V370.43h65.57a7.4,7.4,0,0,0,7.39-7.39V213.67a7.39,7.39,0,0,1,7.38-7.38h68.32A7.37,7.37,0,0,0,660.24,195Zm368.85,117.27L715,144.27c-6.58-3.55-13.54,4.07-9.46,10.32l55.62,85.08a7.26,7.26,0,0,1-6.06,11.21h-117a12.64,12.64,0,0,0-12.64,12.64V416.87a22.25,22.25,0,0,1-22.25,22.25H480.38a22.31,22.31,0,0,1-22.25-22.25V262A11.11,11.11,0,0,0,447,250.88H398.47a47.1,47.1,0,0,0-25.8,7.72l-288,190c-29.07,19.17-27.79,48.05,2.94,64.53l351.76,188.1c30.68,16.42,79.25,14.2,108.32-5L1032,376.82C1061.09,357.6,1059.81,328.72,1029.09,312.29ZM170,444.71c4-6.49,13.73-10.94,21.77-9.9s11.37,7.11,7.34,13.59-13.77,10.94-21.82,9.9S166,451.15,170,444.71Zm65.19,37.12c-7.91,9.28-3.22,20.16-3.22,20.16-.85,26.19-43.61,24.2-49,16.48a55.74,55.74,0,0,0-13.3-12.78,110.31,110.31,0,0,0-22.63-6.44c-13.21-2.37-20.55-26.85,22.2-30.35,0,0,18.56,1.38,33.05-4.26s28.5.57,28.5.57S243.09,472.59,235.14,481.83ZM218.57,454.6c-8.33-3-8.38-11.12-.19-18.22s21.68-10.51,30.06-7.58,8.52,11.18.19,18.32S226.9,457.59,218.57,454.6Zm52.69,46.87c-11.12,1.95-21.11-.52-22.39-5.54s6.72-10.7,17.85-12.68,21.25.42,22.53,5.49S282.43,499.49,271.26,501.47Zm11.13-32.09c-11.46,5.2-25.14,5.58-30.63.85s-.62-12.78,10.79-18,25.14-5.64,30.68-.9S293.89,464.17,282.39,469.38ZM861.16,321.62c4-6.49,13.73-10.94,21.78-9.9s11.36,7.1,7.34,13.59-13.78,10.94-21.83,9.89S857.18,328.06,861.16,321.62Zm65.19,37.11c-7.9,9.28-3.22,20.17-3.22,20.17-.85,26.18-43.6,24.2-49,16.48a56,56,0,0,0-13.31-12.79,110.82,110.82,0,0,0-22.63-6.44c-13.21-2.36-20.54-26.84,22.21-30.34,0,0,18.55,1.37,33-4.26s28.5.56,28.5.56S934.31,349.5,926.35,358.73Zm-16.57-27.22c-8.33-3-8.38-11.12-.19-18.23s21.69-10.51,30.07-7.57,8.52,11.17.19,18.32S918.12,334.49,909.78,331.51Zm52.7,46.87c-11.13,1.94-21.12-.52-22.4-5.54s6.73-10.7,17.85-12.69,21.26.43,22.54,5.5S973.65,376.39,962.48,378.38Zm11.12-32.1c-11.46,5.21-25.14,5.59-30.63.85s-.62-12.78,10.79-18,25.14-5.63,30.68-.9S985.11,341.07,973.6,346.28Zm33.62,352.85L755.87,602.46a1.91,1.91,0,0,0-1.75.19L567.35,723.85c-41.57,27-106,29.92-149.8,6.81L319,678.87a1.93,1.93,0,0,0-1.75,0l-248,117.65C37.91,811.29,38.71,833.54,71.14,846L417.08,979c32.38,12.45,84.18,10.41,115.52-4.41l476.51-226C1040.45,733.84,1039.6,711.58,1007.22,699.13ZM136.38,799.55c2.79-4.55,9.61-7.67,15.24-7s8,5,5.16,9.56-9.65,7.67-15.29,6.92S133.59,804.09,136.38,799.55Zm45.73,26c-5.54,6.48-2.27,14.15-2.27,14.15-.57,18.37-30.58,17-34.42,11.6a39.62,39.62,0,0,0-9.32-9,77.49,77.49,0,0,0-15.91-4.55C111,836.14,105.8,819,135.81,816.5c0,0,13,1,23.2-3s20,.42,20,.42S187.7,819.1,182.11,825.59Zm-11.64-19.13c-5.83-2.08-5.87-7.81-.1-12.78s15.2-7.34,21.07-5.3,6,7.81.14,12.83S176.34,808.59,170.47,806.46Zm37,32.9c-7.81,1.38-14.87-.33-15.72-3.88s4.74-7.48,12.5-8.9,14.91.33,15.81,3.88S215.35,838,207.49,839.36Zm7.81-22.48c-8.05,3.64-17.66,3.88-21.49.56s-.48-8.94,7.52-12.64,17.66-3.93,21.55-.61S223.35,813.18,215.3,816.88Zm659.64-112c2.79-4.54,9.61-7.67,15.24-7s8,5,5.16,9.57-9.65,7.66-15.29,6.91S872.14,709.41,874.94,704.86Zm45.73,26c-5.54,6.49-2.27,14.16-2.27,14.16-.57,18.37-30.59,17-34.42,11.59a39.56,39.56,0,0,0-9.33-9,76.91,76.91,0,0,0-15.9-4.54c-9.24-1.66-14.4-18.8,15.62-21.31,0,0,13,1,23.2-3s20,.42,20,.42S926.26,724.41,920.67,730.9ZM909,711.77c-5.83-2.08-5.87-7.81-.1-12.78s15.2-7.34,21.07-5.3,6,7.81.14,12.83S914.9,713.9,909,711.77Zm37,32.91c-7.81,1.37-14.87-.33-15.72-3.88s4.73-7.48,12.5-8.91,14.91.33,15.81,3.89S953.91,743.3,946.05,744.68Zm7.81-22.49c-8.05,3.65-17.66,3.88-21.49.57s-.48-9,7.52-12.64,17.66-3.93,21.55-.62S961.91,718.5,953.86,722.19Zm69.26,66.42a2.1,2.1,0,0,0-2.17-.23L550.11,1011.65c-41.47,19.65-104.86,22.11-147.71,5.63L58.22,884.91a2.23,2.23,0,0,0-2,.33c-17.14,14.06-12,31.2,15,41.52l345.94,133.08c32.38,12.45,84.18,10.42,115.52-4.4l476.51-226C1034.06,817.68,1038.6,801.16,1023.12,788.61Z" transform="translate(-46.26 -11.4)"/></svg>