<svg id="Layer_1" data-name="Layer 1" xmlns="http://www.w3.org/2000/svg" viewBox="0 0 1031.82 952.11"><defs><style>.cls-1{fill:#8e44ad;}</style></defs><ellipse class="cls-1" cx="132.96" cy="456.74" rx="103.16" ry="131.29" transform="translate(-205.5 35.38) rotate(-25.12)"/><ellipse class="cls-1" cx="356.15" cy="226.03" rx="124.56" ry="158.53" transform="translate(-53.81 -8.85) rotate(-8.54)"/><ellipse class="cls-1" cx="712.51" cy="218.53" rx="155.61" ry="122.26" transform="translate(322.28 803.44) rotate(-77.63)"/><ellipse class="cls-1" cx="943.2" cy="469.85" rx="130.53" ry="102.56" transform="translate(-11.7 899.71) rotate(-54.44)"/><path class="cls-1" d="M701.26,1011.18c-90-36.19-172.56-43.35-172.56-43.35s-82.52,7.16-172.55,43.35-328.22-121.36-125.66-322c0,0,110.66-63.77,142.54-165S528.7,415.45,528.7,415.45s123.79,7.36,155.68,108.64,142.54,165,142.54,165C1029.48,889.82,791.28,1047.37,701.26,1011.18Z" transform="translate(-24.18 -64.27)"/></svg>