<svg id="Layer_1" data-name="Layer 1" xmlns="http://www.w3.org/2000/svg" viewBox="0 0 1050.24 1050.24"><defs><style>.cls-1{fill:#EA7FFB;}</style></defs><path class="cls-1" d="M503.28,581q-35.8,52.51-71.82,104.91c-3.61,5.2-8.27,6.58-12.73,3.93-3.29-2.12-4.67-5.09-3.82-8.91,1.49-6.79,3.18-13.58,4.88-20.37,5.3-21.32,10.5-42.75,15.81-64.18,2.55-10.19,5.09-20.37,7.74-31.09-1.48-.2-2.65-.31-3.92-.52-19.2-2.55-38.51-5-57.71-7.54-9.55-1.27-12.84-8.38-7.54-16.33l38.51-57.29-186.6-200.5L163.49,762.25a76.7,76.7,0,0,0,66.09,86l366.74,48a76.59,76.59,0,0,0,85.92-66.09l6.48-50ZM691.16,170.61l-366.74-48a76.69,76.69,0,0,0-43.6,7.11L713.65,590.5l43.6-333.86A76.72,76.72,0,0,0,691.16,170.61Z" transform="translate(-14.76 -5.54)"/><path class="cls-1" d="M922.1,421.6,790.88,672.71l-42.23-44.87L795.55,269l94.09,49.12A76.71,76.71,0,0,1,922.1,421.6Z" transform="translate(-14.76 -5.54)"/><path class="cls-1" d="M957.64,605.45,844.56,718.64a53.85,53.85,0,0,1-5.84,5.1L816.87,700.4,934.94,474.33l22.7,22.7A76.52,76.52,0,0,1,957.64,605.45Z" transform="translate(-14.76 -5.54)"/><path class="cls-1" d="M823.34,924.88a482.94,482.94,0,0,1-283.46,91.65C272,1016.53,54,798.53,54,530.66a484.1,484.1,0,0,1,113-311l-26.94-29a522.64,522.64,0,0,0-125.29,340c0,289.51,235.61,525.12,525.12,525.12a520.69,520.69,0,0,0,310.4-101.94ZM539.88,5.54a521.86,521.86,0,0,0-292.16,89L275,123.61A482.64,482.64,0,0,1,539.88,44.8c267.86,0,485.87,218,485.87,485.86a482.12,482.12,0,0,1-96.22,289.72l27.37,29.07A522.25,522.25,0,0,0,1065,530.66C1065,241.16,829.39,5.54,539.88,5.54Z" transform="translate(-14.76 -5.54)"/><polygon class="cls-1" points="882.71 932.18 148.52 143.34 186.45 107.94 922.94 891.95 882.71 932.18"/></svg>