<svg id="Layer_1" data-name="Layer 1" xmlns="http://www.w3.org/2000/svg" viewBox="0 0 1051.88 1051.95"><defs><style>.cls-1{fill:#fff;}</style></defs><path class="cls-1" d="M438.46,850a8.2,8.2,0,0,1,1.19,11.38L436,866.05a8.08,8.08,0,0,1-11.29,1.53l-44.57-32L279.82,964.91a8.08,8.08,0,0,1-6.52,3.18,8.5,8.5,0,0,1-4.89-1.56l-92.34-68.36a8.23,8.23,0,0,1-1.87-11.29l94.46-136.81L223.88,717a5.54,5.54,0,0,1-2.94-9l4.12-3.78a8.27,8.27,0,0,1,10.54-.59L280,736.54,401.19,552.17l2.84,3,3,3.24L507.94,666.81l3,3.24,2.9,3.09L396.14,815Z" transform="translate(-14.12 -14.16)"/><path class="cls-1" d="M916.63,200.51,679.5,486.35,676.29,483l-3.24-3.41L556.33,355.33l-3.11-3.41-3.11-3.21L731.88,72.3a9.07,9.07,0,0,1,8.62-4l119,16.34a9.1,9.1,0,0,1,6.71,4.78l51.48,101.39A8.93,8.93,0,0,1,916.63,200.51Z" transform="translate(-14.12 -14.16)"/><path class="cls-1" d="M540.08,14.16a523.19,523.19,0,0,0-289.9,87.28l35.56,37.83c87.29-55.85,191.85-85,297.55-75.39,7.76.75,15.4,1.63,23,2.75l28.8-43.83A528.7,528.7,0,0,0,540.08,14.16ZM178.93,230.68l-34.32-36.81a524.46,524.46,0,0,0-42,637.79L131.33,788c-.87-1.37-1.75-2.63-2.5-4-2.63-4.26-5.13-8.63-7.51-13.15-1.51-2.75-3.13-5.51-4.51-8.39-2.13-3.88-4.13-7.88-6.14-12-1.87-3.75-3.63-7.63-5.38-11.52-37.69-81.77-52.6-175.7-37.57-274.38C81.12,376.2,121.44,295.93,178.93,230.68Zm803.34,25-32.19,38.82a477,477,0,0,1-23.54,526.84l32.56,34.69c65.24-85.79,104.82-192,106.82-306.69A522.09,522.09,0,0,0,982.27,255.73ZM540.08,1018.25a468.38,468.38,0,0,1-89.53-8.52,54.4,54.4,0,0,1-6.52-1.12h-.12c-2.25-.5-4.39-1-6.39-1.51-.75-.12-1.38-.25-2.13-.38-5.13-1.12-10.27-2.38-15.28-3.63-5.63-1.5-11.27-3.13-16.78-4.76-9.89-2.88-19.66-6.13-29.17-9.76l-32.06,38.69a520.64,520.64,0,0,0,192.22,38.82c120.35,1.26,232.3-38.94,322.22-107.31l-32.06-34.44A475.89,475.89,0,0,1,540.08,1018.25Z" transform="translate(-14.12 -14.16)"/><polygon class="cls-1" points="874.99 914.78 160.01 146.58 196.96 112.1 914.17 875.6 874.99 914.78"/></svg>