<svg id="Layer_1" data-name="Layer 1" xmlns="http://www.w3.org/2000/svg" viewBox="0 0 1057.4 1057.4"><defs><style>.cls-1{fill:#8e44ad;}</style></defs><path class="cls-1" d="M773.82,145.49a26.13,26.13,0,0,0-19.29,8.9L530.31,409.33l80.63,81.79,296.7-296.7,3.49,119.85a26.13,26.13,0,0,1-8.81,20.37l-238,210.67,27.16,27.55L947.67,347.55a26.18,26.18,0,0,0,8.9-19.3l2.57-185.33ZM451.38,784,592.67,659.77l-26.84-27.24L424.76,757.41l-40.05-40L518,584l-74.71-75.82L318,650.68l-96.16-96.15a18.63,18.63,0,0,0-26.35,0l-31.91,31.91a18.63,18.63,0,0,0,0,26.35L281.53,730.7,126.66,885.57a23.06,23.06,0,0,0,0,32.56l58.49,58.49a23.06,23.06,0,0,0,32.56,0L372.58,821.75,489.27,938.44a18.63,18.63,0,0,0,26.35,0l31.93-31.91a18.66,18.66,0,0,0,0-26.35Z" transform="translate(-11.6 -11.6)"/><path class="cls-1" d="M540.3,11.6c-111.21,0-217.19,34.11-306,97.4l34.41,34.91A480,480,0,0,1,749,107.37a68.37,68.37,0,0,1,24.24-4.77l62.59-.88C749.22,43.1,647.19,11.6,540.3,11.6ZM171.5,232.42l-34.06-34.55C56,293.36,11.6,413.41,11.6,540.3c0,110.32,33.56,215.48,95.84,303.81l34.76-34.76a479.77,479.77,0,0,1,29.3-576.93ZM1000.17,279l-.69,49.85a69.18,69.18,0,0,1-11.33,36.94,480.14,480.14,0,0,1-55.46,451.8l34.42,34.93c66.15-90,101.89-198.37,101.89-312.21C1069,447.18,1045.09,357.75,1000.17,279ZM842.79,913.55a479.78,479.78,0,0,1-543.7,42.36l-35.27,35.28C346.16,1041.9,441.15,1069,540.3,1069c124.3,0,242-42.6,336.55-120.9Z" transform="translate(-11.6 -11.6)"/><polygon class="cls-1" points="894.98 910.81 153.63 158.61 187.77 123.59 929.12 875.79 894.98 910.81"/></svg>