<svg id="Layer_1" data-name="Layer 1" xmlns="http://www.w3.org/2000/svg" xmlns:xlink="http://www.w3.org/1999/xlink" viewBox="0 0 1008.72 1066.99"><defs><style>.cls-1{fill:url(#linear-gradient);}.cls-2{fill:url(#linear-gradient-2);}.cls-3{fill:url(#linear-gradient-3);}.cls-4{fill:url(#linear-gradient-4);}.cls-5{fill:url(#linear-gradient-5);}</style><linearGradient id="linear-gradient" x1="100.14" y1="781.45" x2="568.24" y2="781.45" gradientUnits="userSpaceOnUse"><stop offset="0" stop-color="#fd8"/><stop offset="1" stop-color="#ffcb7c"/></linearGradient><linearGradient id="linear-gradient-2" x1="495.47" y1="281.23" x2="967.74" y2="281.23" xlink:href="#linear-gradient"/><linearGradient id="linear-gradient-3" x1="-888.47" y1="1032.48" x2="99.03" y2="1032.48" gradientTransform="matrix(0.99, -0.15, 0.15, 0.99, 766.47, -545.31)" xlink:href="#linear-gradient"/><linearGradient id="linear-gradient-4" x1="35.28" y1="549.92" x2="1044" y2="549.92" xlink:href="#linear-gradient"/><linearGradient id="linear-gradient-5" x1="212.73" y1="576.03" x2="817.99" y2="485.61" xlink:href="#linear-gradient"/></defs><path class="cls-1" d="M402.76,855.42a5.52,5.52,0,0,0,.6,7.8l59.44,49.72a5.5,5.5,0,0,1,.73,7.69l-5.17,6.49a5.62,5.62,0,0,1-7.57,1.08l-62.44-44.92a5.39,5.39,0,0,0-7.57,1.08L239.55,1065.82a5.63,5.63,0,0,1-7.68,1L102.41,971.07a5.67,5.67,0,0,1-1.32-7.69L233.55,771.6a5.46,5.46,0,0,0-1.44-7.69L168,716a1.74,1.74,0,0,1-1.8-2.77l5.28-4.8a5.5,5.5,0,0,1,7.21-.48l62.21,46.11a5.41,5.41,0,0,0,7.92-1.44L418.37,495l4.2,4.56L564,651.51l4.2,4.56Z" transform="translate(-35.28 -6.88)"/><path class="cls-2" d="M966.46,176.07l-310,373.48-4.21-4.44L499.55,382.5l-4.08-4.44L734.33,15.39a5.36,5.36,0,0,1,5.4-2.41L895.49,34.36a5.46,5.46,0,0,1,4.2,3l67.38,132.58A5.45,5.45,0,0,1,966.46,176.07Z" transform="translate(-35.28 -6.88)"/><path class="cls-3" d="M972.47,167.3,905.1,34.6a11.82,11.82,0,0,0-8.77-6.25L740.57,7a11.76,11.76,0,0,0-11.29,5.16L491.38,373.85l4.09,4.21,4.08,4.44L738.89,18.87,894.41,40l67.37,132.22L652.3,545.11l4.21,4.44,4.2,4.44L971,179.91A11.56,11.56,0,0,0,972.47,167.3ZM568.24,656.07l-4.2-4.56-166,200.07a11.57,11.57,0,0,0,1.45,16.21l59.32,49.12-4.56,6.36-62.45-44.91A11.53,11.53,0,0,0,376,880.64l-141,181.1L106.13,966.86,238.47,775.08a12,12,0,0,0,1.93-8.77,11,11,0,0,0-4.69-7.2l-61.12-45.76.59-.6,62.21,46.12a11.62,11.62,0,0,0,8.89,2.16,11.49,11.49,0,0,0,7.56-5l168.73-256.4-4.2-4.56-4-4.2L244.48,749.26l-62.21-46.12a11.57,11.57,0,0,0-14.77.85l-5.76,5.28a7.59,7.59,0,0,0-.73,9.13,7.84,7.84,0,0,0,4.81,3.48l62.81,46.36L96.17,960a11.56,11.56,0,0,0,2.64,15.85l129.46,95.84a11.92,11.92,0,0,0,6.84,2.15,11.28,11.28,0,0,0,9.13-4.44L384.86,888.09,447.31,933a11.41,11.41,0,0,0,15.85-2.17l5.17-6.6a11.52,11.52,0,0,0-1.69-16l-59.32-49,165-198.86Z" transform="translate(-35.28 -6.88)"/><path class="cls-4" d="M539.66,45.53a501.73,501.73,0,0,0-278,83.7l34.11,36.27c83.7-53.56,184-81.54,285.33-72.3,7.45.73,14.77,1.57,22.1,2.64l27.62-42A506.86,506.86,0,0,0,539.66,45.53ZM193.32,253.17l-32.91-35.31a503,503,0,0,0-40.23,611.62l27.5-41.91c-.84-1.32-1.68-2.52-2.4-3.85q-3.78-6.12-7.2-12.6c-1.44-2.64-3-5.29-4.33-8-2-3.72-4-7.56-5.88-11.53-1.8-3.6-3.48-7.32-5.16-11C86.56,662.07,72.27,572,86.68,477.37,99.53,392.71,138.2,315.73,193.32,253.17Zm770.38,24-30.86,37.23a457.45,457.45,0,0,1-22.58,505.22l31.22,33.27c62.57-82.27,100.52-184.1,102.44-294.1A500.65,500.65,0,0,0,963.7,277.18Zm-424,731.24a449.11,449.11,0,0,1-85.86-8.17,51.89,51.89,0,0,1-6.25-1.08h-.12q-3.24-.72-6.12-1.44l-2-.36c-4.93-1.08-9.85-2.29-14.66-3.49-5.4-1.43-10.8-3-16.09-4.56-9.49-2.76-18.85-5.88-28-9.36l-30.74,37.1a499.3,499.3,0,0,0,184.34,37.23c115.4,1.2,222.77-37.35,309-102.91l-30.74-33A456.38,456.38,0,0,1,539.66,1008.42Z" transform="translate(-35.28 -6.88)"/><polygon class="cls-5" points="839.09 915.9 153.45 179.22 188.87 146.15 876.66 878.33 839.09 915.9"/></svg>