<svg xmlns="http://www.w3.org/2000/svg"
     data-name="Layer 1" viewBox="0 0 512 640"
     x="0px" y="0px" height="2000px" width="2000px" >
    <path fill="#ffffff" d="M124.649,303.737c10.747,4.638,19.824-.1,24.265-3.328a159.775,159.775,0,0,1-11.861-27.079c-9.774,5.093-30.829,17.475-37.5,32.661-2.7,6.15-1.311,7.89,10.641,13.29,7.117,3.215,15.551,7.049,20.207,14.678l7.117-1.313,5.388-2.486a113.128,113.128,0,0,0-17.5-15.592,35.465,35.465,0,0,1-4.715-1.649,5,5,0,0,1,3.963-9.182Z"/><path fill="#ffffff" d="M139.946,342.367l-6.468,1.193a4.976,4.976,0,0,1-.918,2.352l-4.33,5.845,22.336-2.9a2.676,2.676,0,0,0,1.956-1.278,2.457,2.457,0,0,0,.222-2.151,37.86,37.86,0,0,0-3.61-7.128l-8,3.691A5.013,5.013,0,0,1,139.946,342.367Z"/><path fill="#ffffff" d="M181.168,397.778c-.288.019-.576.028-.862.028a12.832,12.832,0,0,1-9.624-4.37,9.566,9.566,0,0,1-2.612.956c-3.836.767-9.018,4.236-14.747,9.842h27.492c.76-1.863,1.53-4.074,2.306-6.588Z"/><path fill="#ffffff" d="M73.483,125.925a53.5,53.5,0,0,1,4.934-4.942,26.291,26.291,0,0,1-12.681-8.415,36.931,36.931,0,0,1-3.322-4.8c-1.2,3.8-1.729,7.943-.275,11.183C63.665,122.35,67.475,124.69,73.483,125.925Z"/><path fill="#ffffff" d="M307.659,382.475c-1.824,1.852-3.612,3.63-5.317,5.326-1.293,1.286-2.553,2.539-3.743,3.74h24.9a28.24,28.24,0,0,1,.728-5.806l-6.036.4q-.427.029-.854.028a12.773,12.773,0,0,1-6.61-1.839Z"/><path fill="#ffffff" d="M490,386.542c-.239-1.431-.686-4.09-1.235-6.212l-1.588,1.527a12.923,12.923,0,0,1-8.934,3.578c-.056,0-.112-.01-.168-.01-.133.266-.275.53-.43.788a76.423,76.423,0,0,0-4.269,8.764h18.057c-.339-2.141-.724-4.411-1.152-6.794C490.2,387.7,490.105,387.146,490,386.542Z"/><path fill="#ffffff" d="M314.714,375.049l1.169.7a2.792,2.792,0,0,0,1.652.4l10.16-.669c5.157-11.819,14.032-24.164,20.613-29.333a16.531,16.531,0,0,0,6.244-13.6l-.177-4.677a26.452,26.452,0,0,1,9.729-21.578,41.872,41.872,0,0,0,10.635-12.32,109.9,109.9,0,0,0-19.482,5.955c-5.162,2.063-9.8,3.957-14.026,5.68-4.139,1.689-7.884,3.215-11.358,4.591,3.138,6.45,7.665,17.5,6.593,25.788C334.585,350.519,324.915,363.828,314.714,375.049Z"/><path fill="#ffffff" d="M465.091,191.52c-13.129-2.377-27.638-1.224-36.195.971a56.384,56.384,0,0,1-35.982-2.656c-10.27-4.384-26.142-8.707-43.447-4.383-23.309,5.822-68.32-11.694-137.592-53.557l-1.681-1.015c-27.251-16.443-60.682-9.263-78.185-3.52a26.859,26.859,0,0,1-21.606-2.134,29.725,29.725,0,0,0-13.79-3.679c-2.066.669-9.99,3.711-17.2,12.879-.041.053-.092.1-.134.148s-.114.13-.174.193a27.021,27.021,0,0,1-5.164,4.312c-2.836,2-5.768,4.058-6.623,6.685A14.714,14.714,0,0,1,57.3,155.257a40.022,40.022,0,0,1-23.89-.817,42.181,42.181,0,0,1-16.292-10.506A27.66,27.66,0,0,0,23,153.805c6.664,7.043,17.421,10.059,31.956,8.958a5,5,0,0,1,4.51,7.8c-.091.134-9.331,13.873-10.284,25.781-.531,6.623-4.071,13.281-10.522,19.788a7.38,7.38,0,0,0-.183,10.213,7.464,7.464,0,0,0,5.267,2.392c22.368.582,39.288-1.981,44.134-6.7a36.262,36.262,0,0,1,11.1-7.675c12.619-5.363,22.415-6.1,29.12-2.2,3.258,1.9,7.344,5.9,8.3,14.195a227.031,227.031,0,0,0,14.328,54.684c5.38,12.991,13.766,28.376,25.19,35.574-5.243-20.491-.958-40.114-.741-41.078a5,5,0,0,1,9.756,2.2c-.11.5-5.321,24.895,3.782,45.477a34.433,34.433,0,0,1,2.3,21.415,256.937,256.937,0,0,1-7.926,28.926,72.935,72.935,0,0,1-5.55,12.5l.55.688A2.838,2.838,0,0,0,180.5,387.8l5.393-.363.017-.07a72.156,72.156,0,0,1,17.12-31.41c5.94-6.508,9.652-15.182,13.242-23.57,7.338-17.151,15.654-36.592,44.373-29.193,36.8,9.481,41.357,7.624,76.813-6.844,4.242-1.731,8.9-3.633,14.092-5.707,29.832-11.926,47.1-8.267,56.543-2.684a31.411,31.411,0,0,0-10.647-15.594,5,5,0,0,1,5.849-8.111c.776.557,18.946,13.895,15.293,36.636l-.007.049,0,.035c-1.48,9.09,9.364,17.871,15.961,22.3a52.969,52.969,0,0,1,17.635,20.687,25.615,25.615,0,0,0,6.22,7.688,89.08,89.08,0,0,1,13.173,14.46l5.444,7.4a11.71,11.71,0,0,1,1.138,1.915,2.848,2.848,0,0,0,2.105-.773l3.606-3.468C471.986,350.354,463,321.708,457.411,303.9c-1.99-6.346-3.71-11.825-4.576-13.67a71.288,71.288,0,0,1-6.958-31.912c.535-20.459-10.23-35-16.695-41.852a9,9,0,0,1,4.827-14.993c25.143-4.954,39.746-3.821,47.347,3.671,7.155,7.051,6.327,17.994,4.366,28.769s1.694,17.631,5.944,21.809c-1.588-9.856.027-16.19,1.5-21.957,1.7-6.668,3.169-12.426-.874-24.151C488.287,198,475.29,193.367,465.091,191.52Z"/></svg>