<svg id="Layer_1" data-name="Layer 1" xmlns="http://www.w3.org/2000/svg" viewBox="0 0 1067.32 1034.55"><defs><style>.cls-1{fill:#fff;}</style></defs><path class="cls-1" d="M657.55,217.21,538.62,26.29a7.78,7.78,0,0,0-13.27,0L406.41,217.21a7.84,7.84,0,0,0,6.67,12h72.4a7.84,7.84,0,0,1,7.85,7.85V403.22h69.46a7.8,7.8,0,0,0,7.85-7.79V237a7.91,7.91,0,0,1,7.85-7.85h72.45A7.79,7.79,0,0,0,657.55,217.21Zm391.09,124.4L715.6,163.5c-7-3.77-14.36,4.29-10,10.9l58.87,90.16a7.68,7.68,0,0,1-6.4,11.93H634.16a13.4,13.4,0,0,0-13.48,13.38V452.49A23.58,23.58,0,0,1,597.13,476H466.94a23.55,23.55,0,0,1-23.55-23.55l-.1-164.27a11.72,11.72,0,0,0-11.73-11.73H380.08a49.06,49.06,0,0,0-27.32,8.21L47.4,486.11c-30.78,20.3-29.49,50.92,3.15,68.37L423.41,754c32.58,17.35,84,15,115-5.32L1051.74,410C1082.57,389.64,1081.23,359,1048.64,341.61Zm-734.3,92.7c-19,10.69-38,21.49-57,32.28-5,2.79-10.12,5.68-15.13,8.52-.46.26-.82.57-1.39.93l1.44.77L268,490.76c2.69,1.39,2.17,3.72-1.29,5.52a12.35,12.35,0,0,1-3,1.19q-67.38,22.62-135.56,45.4c-4.49,1.49-7.54,1.23-8.31-.68-.62-1.39.36-2.89,2.74-4.28,4.28-2.48,8.62-5,13-7.44,13.74-7.85,27.42-15.59,41.06-23.39,6.5-3.67,13-7.39,19.83-11.21l-26.24-14.2c-4.08-2.22-1.91-5.68,4.8-8q68.25-22.92,135.82-45.6a37.33,37.33,0,0,1,6.36-1l1.86,1C319.91,430.28,318,432.3,314.34,434.31ZM979.54,353c-19,10.74-37.9,21.53-57,32.32-5,2.79-10.12,5.69-15.13,8.47-.47.31-.83.62-1.4,1l1.45.73c8.57,4.65,17.15,9.34,25.72,14,2.68,1.4,2.17,3.67-1.29,5.53a15,15,0,0,1-3,1.19q-67.39,22.62-135.51,45.39c-4.54,1.45-7.54,1.24-8.36-.67-.62-1.4.36-2.89,2.73-4.29,4.29-2.53,8.63-5.06,13-7.49q20.6-11.69,41-23.34c6.51-3.72,13-7.38,19.83-11.26l-26.23-14.15c-4.08-2.22-1.91-5.73,4.8-8q68.32-22.94,135.82-45.6a37.16,37.16,0,0,1,6.4-1l1.81,1C985.17,349,983.16,351,979.54,353Zm45.91,398.68L759,649.25a1.86,1.86,0,0,0-1.86.1l-198,128.54c-44,28.61-112.37,31.71-158.85,7.28L295.85,730.22a1.84,1.84,0,0,0-1.86-.05L31,854.84c-33.21,15.75-32.33,39.4,2,52.57l366.87,141c34.29,13.21,89.18,11,122.44-4.65l505.22-239.57C1060.67,788.48,1059.8,764.88,1025.45,751.66ZM249.27,826.38c-13.38,7.54-26.65,15.08-40.13,22.73-3.56,2-7.07,4-10.64,6-.31.15-.62.36-1,.57l1,.61c6,3.26,12.09,6.51,18.08,9.77,1.91,1,1.55,2.63-.93,3.92a10.73,10.73,0,0,1-2.07.88l-95.38,31.91c-3.2,1-5.32.88-5.84-.41-.46-1,.21-2.12,1.92-3.15,2.94-1.76,6-3.46,9.08-5.16,9.66-5.53,19.27-11,29-16.48,4.59-2.58,9.14-5.16,13.89-7.9l-18.39-10c-2.89-1.55-1.44-4,3.31-5.63q48.11-16.18,95.64-32.07a25.55,25.55,0,0,1,4.44-.72l1.34.62C253.19,823.59,251.8,825,249.27,826.38Zm702.18-66.51c-13.38,7.54-26.7,15.08-40.13,22.72-3.56,2-7.12,4-10.64,6-.31.16-.61.36-1,.57l1,.62,18,9.76c2,1,1.55,2.63-.88,3.92a16.55,16.55,0,0,1-2.06.88q-47.49,15.81-95.44,31.92c-3.15,1-5.32.88-5.83-.47-.42-1,.25-2.06,1.91-3.1,3-1.75,6.09-3.46,9.14-5.16,9.65-5.53,19.26-11,29-16.47,4.54-2.59,9.14-5.17,13.89-7.91l-18.44-10c-2.89-1.55-1.39-4,3.36-5.63q48.11-16.19,95.64-32.07a30.5,30.5,0,0,1,4.44-.78l1.29.67C955.37,757.08,954,758.47,951.45,759.87Z" transform="translate(-6.68 -22.57)"/></svg>