<svg id="Layer_1" data-name="Layer 1" xmlns="http://www.w3.org/2000/svg" viewBox="0 0 940.62 1057.77"><defs><style>.cls-1{fill:#fff;}</style></defs><path class="cls-1" d="M933,985l76.5-751.24A100.13,100.13,0,0,0,920,124l-37.64-3.84A106.83,106.83,0,0,1,903.14,184L900.4,993.32a106.94,106.94,0,0,1-30.8,74.89A100.08,100.08,0,0,0,933,985Z" transform="translate(-69.38 -11.41)"/><path class="cls-1" d="M716.93,13.19,183.25,11.42a110.61,110.61,0,0,0-111,110.27L69.38,956.32a110.68,110.68,0,0,0,110.29,111.09l533.69,1.78a110.62,110.62,0,0,0,111-110.28l2.83-834.63A110.67,110.67,0,0,0,716.93,13.19ZM568,544.91a18.81,18.81,0,0,1-2.21,5.9Q502.42,674.46,439,798c-4.16,8.13-10.59,11-17.4,8-5.19-2.37-7.68-6.44-7.16-12.07.95-10,2.15-20,3.29-30q5.48-47.31,11-94.76c1.72-15.11,3.51-30.17,5.34-45.91-2.11,0-3.9-.06-5.69,0q-42-.21-84-.31c-13.86-.09-19.9-9.7-13.69-22.11Q393.91,474.93,457.32,349c1.94-3.77,6-6.45,9-9.68,2.17,0,4.27,0,6.43.05,8.16,3.84,9.92,10.41,8.9,18.89-5.44,44.68-10.68,89.41-16,134.14-1.4,11.8-2.87,23.6-4.27,35.4a33.34,33.34,0,0,0,0,3.46c1.73,0,3.4,0,5,0l88.15.27C563.87,531.65,569.25,537,568,544.91Z" transform="translate(-69.38 -11.41)"/></svg>