<svg id="Layer_1" data-name="Layer 1" xmlns="http://www.w3.org/2000/svg" viewBox="0 0 1014.19 1064.41"><defs><style>.cls-1{fill:#fff;}</style></defs><path class="cls-1" d="M1018.86,790.88a2,2,0,0,0-2.18-.21L542.41,1015.55c-41.79,19.8-105.63,22.26-148.82,5.69L46.86,887.87a2.38,2.38,0,0,0-2,.35c-17.27,14.11-12.15,31.39,15,41.86l348.56,134c32.59,12.57,84.77,10.53,116.37-4.43l480-227.62C1029.89,820.16,1034.52,803.52,1018.86,790.88Zm-16-90.18L749.66,603.36a1.75,1.75,0,0,0-1.75.14L559.76,725.63C517.9,752.81,453,755.76,408.83,732.51L309.6,680.33a1.75,1.75,0,0,0-1.76-.07L58,798.74c-31.54,15-30.7,37.44,1.89,49.94l348.56,134c32.59,12.57,84.77,10.53,116.37-4.43l480-227.62C1036.35,735.68,1035.5,713.27,1002.85,700.7Zm-737.5,71C252.64,778.87,240,786,227.21,793.26c-3.37,1.9-6.74,3.8-10.11,5.76-.28.14-.56.35-.91.57l1,.56c5.69,3.09,11.45,6.18,17.14,9.27,1.82,1,1.47,2.53-.85,3.72a11.8,11.8,0,0,1-2,.84l-90.67,30.34c-3,1-5.06.84-5.55-.42-.42-1,.21-2,1.83-2.95,2.81-1.68,5.76-3.3,8.64-4.91,9.2-5.27,18.33-10.47,27.53-15.67,4.35-2.45,8.71-4.91,13.2-7.51L169,803.38c-2.74-1.48-1.33-3.79,3.16-5.34q45.72-15.37,90.88-30.48a27.94,27.94,0,0,1,4.22-.7l1.26.63C269.07,769,267.74,770.37,265.35,771.7Zm667.2-63.2c-12.72,7.16-25.36,14.32-38.14,21.55-3.37,1.9-6.74,3.8-10.11,5.77-.28.14-.56.35-.92.56l1,.56c5.69,3.09,11.45,6.18,17.13,9.27,1.83,1,1.48,2.53-.84,3.72a10.8,10.8,0,0,1-2,.84L808,781.12c-3,1-5.06.84-5.55-.43-.42-1,.21-2,1.82-3,2.81-1.68,5.76-3.3,8.64-4.91,9.2-5.27,18.33-10.47,27.53-15.66,4.36-2.46,8.71-4.92,13.21-7.52l-17.49-9.48c-2.74-1.47-1.33-3.79,3.16-5.34q45.72-15.37,90.88-30.48a27.81,27.81,0,0,1,4.21-.7l1.27.63C936.27,705.83,934.93,707.16,932.55,708.5Zm92.35-397.44L708.44,141.8c-6.6-3.58-13.63,4.07-9.48,10.39l56,85.69a7.3,7.3,0,0,1-6.11,11.3H631a12.73,12.73,0,0,0-12.78,12.72V416.4a22.42,22.42,0,0,1-22.4,22.41H472.18a22.42,22.42,0,0,1-22.4-22.41l-.07-156a11.16,11.16,0,0,0-11.17-11.17H389.66a46.83,46.83,0,0,0-26,7.8L73.55,448.36c-29.29,19.31-28,48.39,3,65L430.81,702.88c31,16.5,79.86,14.25,109.21-5.06L1027.85,376C1057.14,356.71,1055.87,327.56,1024.9,311.06ZM327.15,399.13c-18,10.18-36,20.43-54.14,30.69-4.78,2.67-9.63,5.41-14.4,8.08-.42.28-.78.56-1.34.91l1.41.7,24.44,13.28c2.53,1.33,2,3.51-1.27,5.26a12.21,12.21,0,0,1-2.81,1.12Q215,480.67,150.24,502.3c-4.28,1.4-7.16,1.19-7.94-.63-.56-1.34.36-2.74,2.6-4.08,4.08-2.38,8.22-4.77,12.36-7.09q19.61-11.17,39.05-22.19c6.18-3.52,12.36-7,18.82-10.68L190.2,444.14c-3.86-2.1-1.82-5.4,4.57-7.58q64.89-21.81,129.08-43.33a34,34,0,0,1,6-1l1.76.91C332.49,395.34,330.59,397.23,327.15,399.13Zm632.08-77.26c-18.05,10.18-36,20.44-54.14,30.69-4.78,2.67-9.63,5.41-14.4,8.08-.42.28-.77.56-1.34.91l1.41.71,24.44,13.27c2.53,1.34,2,3.51-1.27,5.27a12.32,12.32,0,0,1-2.8,1.12Q847.07,403.42,782.32,425c-4.28,1.41-7.16,1.2-7.93-.63-.57-1.34.35-2.74,2.59-4.07,4.08-2.39,8.22-4.78,12.37-7.1q19.59-11.16,39-22.19c6.18-3.51,12.36-7,18.82-10.67l-24.93-13.49c-3.86-2.11-1.82-5.41,4.57-7.58Q891.74,337.5,955.93,316a34.14,34.14,0,0,1,6-1l1.76.91C964.57,318.08,962.68,320,959.23,321.87Zm-305.92-129L540.3,11.45a7.43,7.43,0,0,0-12.64,0l-113,181.41A7.44,7.44,0,0,0,421,204.24h68.83a7.45,7.45,0,0,1,7.44,7.44v158h66a7.45,7.45,0,0,0,7.44-7.45V211.68a7.5,7.5,0,0,1,7.45-7.44H647A7.42,7.42,0,0,0,653.31,192.86Z" transform="translate(-34.81 -7.92)"/></svg>