<svg xmlns="http://www.w3.org/2000/svg" data-name="Layer 1" viewBox="0 0 248 256" x="0px" y="0px"><path fill="white" d="M58.1,262.206a110.075,110.075,0,0,1-26.28,6.08c-1.979,25.789.334,48.043,6.9,66.185,8.563,23.645,24.513,40.3,47.408,49.512,6.337,2.549,21.455,3.77,27.66,1.48,7.509-2.771,13.226-7.929,16.1-14.525,3.107-7.132,3.023-16.1-.2-26.179l-4.488,6.786a6.784,6.784,0,0,1-5.816,3.082l-5.112-.061a15.316,15.316,0,0,1-6.626,10.924,18.166,18.166,0,0,1-19.1,1.384c-23.5-12.759-35.662-36.867-35.163-69.716A158.349,158.349,0,0,1,58.1,262.206Z"/><path fill="white" d="M79.14,225.311a17.869,17.869,0,0,1,7.6,12.711c3.878-1.52,8.26-3.634,10.672-6.006,11.793-11.6,20.534-16.69,39.143-14.989-3.046-14.792-2.844-32.03.708-51.286a233.9,233.9,0,0,1,15.463-50.273,5,5,0,0,1,9.083,4.184c-.384.833-37.458,82.811-2.169,123.862a38.056,38.056,0,0,0,15.178-2.536c.106-.053.2-.121.31-.167s.213-.06.319-.1a22.863,22.863,0,0,0,12.275-12.22c.769-1.808,1.491-3.592,2.21-5.365,4.758-11.747,9.678-23.893,26.4-38.931,33.369-30,31.7-37.534,25.5-65.558-2-9.021-6.222-15.64-12.561-19.675-11.314-7.2-26.982-5.158-35.314-3.3a114.387,114.387,0,0,1-12.109,2.014c-13.714,1.543-40.356,7.952-45.558,9.221-.666.163-1.362.374-2.016.579-3.21,1.006-12.335,2.725-27.646-3.03a16.757,16.757,0,0,0-13.361.786c-8.374,3.893-15.353,13.25-17.918,20.482-2.384,6.719-8.973,14.34-19.586,22.654a14.369,14.369,0,0,0-4.986,15.107l.468,1.73a24.431,24.431,0,0,1,.124,12.234c-.718,2.9-1.831,6.679-3.241,11.467-3.737,12.69-9.141,31.045-12.906,52.37,12.86-6.367,24.546-12.383,30.384-16.119A12.175,12.175,0,0,1,79.14,225.311Z"/><path fill="white" d="M73.446,233.532a1.986,1.986,0,0,0-1.134-.339,2.444,2.444,0,0,0-1.31.391c-8.848,5.664-29.679,15.922-48.62,25.114,12.929-.09,32.444-3.165,54.51-16.647C77.168,238.122,76.032,235.323,73.446,233.532Z"/><path fill="white" d="M174.157,251.707c-.5.141-1,.284-1.517.409a48.1,48.1,0,0,1-4.832.909c-.525,8.121-1.808,26.679-3.7,45.852-5.205,52.8-9.9,58.8-11.664,61.06-3.244,4.149-5.028,13.265-5.025,25.67a40.5,40.5,0,0,1-11.311,28.156.35.35,0,0,0-.085.448.4.4,0,0,0,.428.273H173.48c-.156-1.619-.155-3.38-.154-5.377a66.724,66.724,0,0,0-1.008-13.345c-3.192-16.513,15.741-71.857,19.526-82.663C187.638,288.165,178.078,261.87,174.157,251.707Z"/><path fill="white" d="M223.021,191.636c-15.008,13.494-19.288,24.061-23.82,35.248-.74,1.826-1.484,3.663-2.276,5.525a32.206,32.206,0,0,1-13.533,15.418c5.588,14.336,22.454,60.688,20.306,92.736-1.029,15.354-1.2,26.916-.524,35.349a61.387,61.387,0,0,1-6.1,32.315c-2.44,4.9-3.344,8-3.644,9.871h28.2a11.787,11.787,0,0,0,10.061-5.564,11.333,11.333,0,0,0,.6-11.183l-.206-.416c-6.24-12.413-4.306-23.971-2.258-36.208,1.319-7.883,2.683-16.033,1.97-25.121-.391-2.6-2.009-18.407,10.3-48.341,11.679-28.4-13.029-66.447-13.28-66.827a5,5,0,1,1,8.352-5.5c.894,1.358,17.425,26.839,18.042,53.78,7.661,4.64,37.466,19.86,89.675,13.169,16.389-2.1,31.02,1.73,43.487,11.383,30.773,23.827,37.527,74.776,37.8,76.934a5,5,0,0,1,.01,1.166c-.5,4.608-.616,13.418,1.165,17.427a13.023,13.023,0,0,1-.263,10.972,116.192,116.192,0,0,0-5.431,12.661c3.754.373,12.267.623,31.062-.646A6.459,6.459,0,0,0,458,412.461a6.255,6.255,0,0,0,.116-6.042,91.741,91.741,0,0,0-4.693-8.095c-4.518-6.89-2.474-10.792.006-14.2,2.029-2.785,4.806-6.6.334-22.418-1.334-4.719-2.591-8.961-3.807-13.062-6.74-22.739-10.808-36.464-6.49-60.338,4.9-27.1,14.369-93.593-3.534-125.559a5,5,0,0,1,8.229-5.612c1.068,1.3,26.18,32.243,30.143,62.639a14.373,14.373,0,0,1-2.49,10.155c-2.923,4.158-4.965,11.012,1.909,20.048l8.257,10.852c3.2-6.64,6.5-18.179-.511-30.288a21.548,21.548,0,0,1-2.927-10.12,141.254,141.254,0,0,0-23.728-74.771c-13.6-20.265-31.918-35.734-51.589-43.559-20.47-8.143-41.38-9.345-62.148-3.576-48.027,13.343-80.07,11.622-96.365,8.893a50.594,50.594,0,0,1,2.893,9.071C259.116,150.445,257.479,160.654,223.021,191.636Z"/><path fill="white" d="M346.154,295.8c-2.309.3-4.567.542-6.8.76A291.588,291.588,0,0,1,351.3,327.97c8.808,28.35,9.14,48.594.987,60.17a106.3,106.3,0,0,0-12.868,23.342,3.5,3.5,0,0,0,.443,3.314,3.543,3.543,0,0,0,3.055,1.468l36.86-1.537a2.334,2.334,0,0,0,2.236-2.054c.676-6.506-.925-11.068-4.757-13.561a5,5,0,0,1-1.77-6.378c.055-.114,5.886-12.394,3.98-23.774-2.076-12.392,6.238-47.761,8.849-58.364C376.743,298.663,362.638,293.693,346.154,295.8Z"/></svg>