<svg id="Layer_1" data-name="Layer 1" xmlns="http://www.w3.org/2000/svg" viewBox="0 0 1054.24 1026.51"><defs><style>.cls-1{fill:#fff;}</style></defs><path class="cls-1" d="M634.36,629.76V831.5a28.41,28.41,0,0,1-28.42,28.42H454.13a8.73,8.73,0,0,0-8.73,8.74v147.63a27.63,27.63,0,0,1-27.63,27.63H229.35a27.63,27.63,0,0,1-27.62-27.63V868.66a8.73,8.73,0,0,0-8.73-8.74H41.18A28.41,28.41,0,0,1,12.76,831.5V629.76a28.41,28.41,0,0,1,28.42-28.42H193a8.73,8.73,0,0,0,8.73-8.73V440a27.63,27.63,0,0,1,27.62-27.63H417.77A27.63,27.63,0,0,1,445.4,440V592.61a8.73,8.73,0,0,0,8.73,8.73H605.94A28.41,28.41,0,0,1,634.36,629.76Z" transform="translate(-12.76 -17.41)"/><path class="cls-1" d="M1067,381.23V491a15.46,15.46,0,0,1-15.46,15.46H969a4.75,4.75,0,0,0-4.75,4.75V591.5a15,15,0,0,1-15,15H846.68a15,15,0,0,1-15-15V511.18a4.75,4.75,0,0,0-4.75-4.75H744.31A15.46,15.46,0,0,1,728.85,491V381.23a15.47,15.47,0,0,1,15.46-15.47H826.9a4.75,4.75,0,0,0,4.75-4.75V278a15,15,0,0,1,15-15h102.5a15,15,0,0,1,15,15v83a4.75,4.75,0,0,0,4.75,4.75h82.59A15.47,15.47,0,0,1,1067,381.23Z" transform="translate(-12.76 -17.41)"/><path class="cls-1" d="M718.9,109.58v85.54a12.05,12.05,0,0,1-12,12H642.48a3.7,3.7,0,0,0-3.7,3.7v62.6a11.71,11.71,0,0,1-11.71,11.71H547.18a11.72,11.72,0,0,1-11.72-11.71v-62.6a3.7,3.7,0,0,0-3.7-3.7H467.39a12.06,12.06,0,0,1-12.05-12V109.58a12.05,12.05,0,0,1,12.05-12h64.37a3.7,3.7,0,0,0,3.7-3.7V29.12a11.72,11.72,0,0,1,11.72-11.71h79.88a11.72,11.72,0,0,1,11.72,11.71V93.83a3.7,3.7,0,0,0,3.7,3.7h64.37A12,12,0,0,1,718.9,109.58Z" transform="translate(-12.76 -17.41)"/></svg>