<svg id="Layer_1" data-name="Layer 1" xmlns="http://www.w3.org/2000/svg" viewBox="0 0 1045.4 1062.12"><defs><style>.cls-1{fill:#fff;}</style></defs><path class="cls-1" d="M1063,374.84V714.12a47.81,47.81,0,0,1-47.8,47.81H759.88a14.68,14.68,0,0,0-14.68,14.68V1024.9a46.46,46.46,0,0,1-46.46,46.46H381.87a46.47,46.47,0,0,1-46.47-46.46V776.61a14.68,14.68,0,0,0-14.68-14.68H65.4a47.81,47.81,0,0,1-47.8-47.81V374.84A47.8,47.8,0,0,1,65.4,327H320.72a14.68,14.68,0,0,0,14.68-14.68V55.7A46.47,46.47,0,0,1,381.87,9.24H698.73A46.46,46.46,0,0,1,745.2,55.7V312.36A14.68,14.68,0,0,0,759.88,327H1015.2A47.8,47.8,0,0,1,1063,374.84Z" transform="translate(-17.6 -9.24)"/></svg>