<svg id="Layer_1" data-name="Layer 1" xmlns="http://www.w3.org/2000/svg" viewBox="0 0 1013.06 1034.62"><defs><style>.cls-1{fill:#fff;}</style></defs><path class="cls-1" d="M715,603.37v221a31.14,31.14,0,0,1-31.14,31.14H517.51a9.56,9.56,0,0,0-9.56,9.57v161.75a30.27,30.27,0,0,1-30.27,30.27H271.25A30.27,30.27,0,0,1,241,1026.86V865.11a9.57,9.57,0,0,0-9.57-9.57H65.08A31.14,31.14,0,0,1,33.94,824.4v-221a31.14,31.14,0,0,1,31.14-31.14H231.41a9.58,9.58,0,0,0,9.57-9.57V395.46a30.27,30.27,0,0,1,30.27-30.27H477.68A30.27,30.27,0,0,1,508,395.46v167.2a9.57,9.57,0,0,0,9.56,9.57H683.84A31.14,31.14,0,0,1,715,603.37Z" transform="translate(-33.94 -22.51)"/><path class="cls-1" d="M1047,147.43V263.36a16.33,16.33,0,0,1-16.33,16.33H943.43a5,5,0,0,0-5,5v84.84a15.87,15.87,0,0,1-15.87,15.87H814.27a15.88,15.88,0,0,1-15.88-15.88V284.71a5,5,0,0,0-5-5H706.14a16.33,16.33,0,0,1-16.33-16.33V147.43a16.33,16.33,0,0,1,16.33-16.33h87.24a5,5,0,0,0,5-5V38.39a15.88,15.88,0,0,1,15.88-15.88H922.54a15.88,15.88,0,0,1,15.87,15.88v87.69a5,5,0,0,0,5,5h87.24A16.33,16.33,0,0,1,1047,147.43Z" transform="translate(-33.94 -22.51)"/></svg>