<svg xmlns="http://www.w3.org/2000/svg" xmlns:xlink="http://www.w3.org/1999/xlink" version="1.1" x="0px" y="0px" viewBox="0 0 100 125" enable-background="new 0 0 100 100" xml:space="preserve">
    <g><path fill="white" d="M45.123,21.421c-0.197,1.515-0.672,2.845-1.34,4.43c-0.695,1.645-1.195,3.385-1.025,5.165   c0.188,1.932,1.893,3.404,2.092,3.439c1.682,0.296,3.25,0.933,4.582,1.891c0.176,0.127,0.344,0.257,0.506,0.389   c-1.43-2.184-2.143-4.401-2.09-8.843c0.012-0.933,0.061-1.896-0.012-3.006c-0.264-4.07-0.895-6.973-3.328-9.766   c-0.857-0.985-0.797-0.585-0.395,0.244C45.121,17.428,45.422,19.158,45.123,21.421z"/><path fill="white" d="M51.645,38.01c0.557,0.604,1.051,1.243,1.561,1.902c0.902,1.171,1.828,2.37,3.213,3.531   c0.09-6.203-2.461-11.418-7.254-13.854c-0.434,1.784,0.23,3.458,0.625,4.69C50.184,35.511,51.068,36.819,51.645,38.01z"/><path fill="white" d="M25.721,44.957c0.037,1.104,0.164,2.001,0.422,3.088c0.293,1.222,0.746,2.395,1.242,3.545   c0.637,1.471,1.434,3.02,2.643,4.113c-0.039-0.269-0.078-0.535-0.115-0.802c-0.229-1.563-0.318-2.614-0.42-4.195   c-0.102-1.587-0.207-3.418,0.121-4.963c0.09-0.428,0.256-0.835,0.346-1.257c0.104-0.47-0.172-0.446-0.531-0.481   c-0.387-0.039-0.881-0.068-1.246-0.195c-0.576-0.199-1.201-0.629-1.637-1.041c-0.359-0.344-0.877-0.864-1.072-1.328   c-0.031,0.343,0.084,0.612,0.139,0.94c0.045,0.267,0.029,0.538,0.041,0.809c0.004,0.096,0.012,0.192,0.025,0.287   C25.744,43.933,25.703,44.494,25.721,44.957z"/><path fill="white" d="M21.986,53.799c1.779,1.514,4.469,2.332,6.9,2.287c-1.283-1.16-2.16-2.787-2.805-4.359   c-0.854-2.081-2.023-4.301-1.879-6.575c0.008-0.16-1.162-0.571-1.305-0.634c-0.717-0.319-1.336-0.663-1.818-1.271   c-0.27-0.342-0.643-0.65-0.904-1c-0.557,1.367-1.074,4.97-1.08,5.485c0,0.083,0.006,0.165,0.008,0.249   C19.678,50.058,20.326,52.388,21.986,53.799z"/><path fill="white" d="M31.4,65.211c0.316,0.408,0.588,0.152,0.416-0.379c-0.283-0.871-0.541-1.607-0.648-1.93   c-0.58-1.705-0.904-3.534-1.178-5.342c-2.459,0.16-5.268-0.512-7.199-1.938c-0.965-0.711-1.223-0.883-1.596-1.33   c-0.174-0.208-0.5,0.006-0.406,0.324c0.283,0.953,0.641,1.311,1.551,2.601c0.721,1.022,2.033,1.924,3.553,2.97   C27.746,61.459,29.656,62.975,31.4,65.211z"/><path fill="white" d="M20.869,34.431c-0.342,0.672-0.57,1.394-0.641,2.141c-0.16,1.691,0.352,3.661,1.506,4.923   c0.748,0.817,1.42,1.375,2.459,2.013c0.131,0.079,0.311,0.325,0.471,0.343c0.213,0.023,0.094-0.345,0.051-0.438   c-0.119-0.25-0.23-0.506-0.33-0.766c-0.238-0.614-0.412-1.253-0.473-1.905c-0.029-0.316,0.047-0.609,0.064-0.925   c0.021-0.383,0.07-0.77,0.174-1.141c0-0.002,0.002-0.005,0.002-0.008c-0.611-1.578-0.725-3.356-0.555-5.03   c0.047-0.462,0.109-0.924,0.205-1.38c0.053-0.265,0.492-1.301,0.303-1.549c-0.855,0.572-1.562,1.371-1.768,1.609   C21.777,32.972,21.26,33.669,20.869,34.431z"/><path fill="white" d="M12.035,32.406c-0.297,0.498-0.814,0.617-0.721,1.228c0.115,0.761,0.73,1.832,1.592,1.711   c1.012-0.141,1.145-0.366,2.117-0.684c1.355-0.442,1.664-0.784,2.723-1.465c-2.348-0.072-4.238-1.258-5.297-2.07   C12.398,31.69,12.275,32.002,12.035,32.406z"/><path fill="white" d="M11.953,30.62c0.043-0.349-0.871-1.18-1.008-1.473c-0.275-0.582-0.42-0.642-0.59-1.264   c-0.115-0.413-0.521-0.359-0.596,0.044c-0.045,0.254,0.031,0.531,0.07,0.781c0.125,0.762,0.469,1.408,0.924,1.984   c0.125,0.157,0.369,0.291,0.568,0.321C11.652,31.065,11.922,30.869,11.953,30.62z"/><path fill="white" d="M21.516,30.818c0.459-0.965-0.24-2.292-1.736-2.128c1.232-0.362,2.15-0.5,2.615-0.59c1.414-0.273,2.742-1.035,3.975-1.744   c0.59-0.338,1.115-0.782,1.58-1.295c0.76-0.84,1.443-1.925,1.92-3.07c-0.029,0.377-0.076,0.758-0.148,1.146   c-0.225,1.192-0.654,2.349-1.25,3.406c-0.455,0.81-1.113,1.471-1.707,2.177c-0.609,0.728-1.15,1.528-1.574,2.38   c-0.434,0.875-0.719,1.814-0.799,2.782c-0.182,2.192,0.508,4.735,2.02,6.354c0.98,1.047,1.859,1.761,3.215,2.572   c0.17,0.101,0.408,0.417,0.617,0.438c0.275,0.026,0.113-0.449,0.057-0.568c-0.156-0.323-0.305-0.652-0.439-0.988   c-0.525-1.323-0.611-2.766-0.572-4.173c0.039-1.389,0.121-2.807,0.375-4.173c0.084-0.45,0.314-2.191,0.643-2.544   c-0.969,5.167,0.627,6.524,1.656,7.421c0.25,0.219,0.684,0.443,0.963,0.622c0.365,0.233,0.756,0.443,1.154,0.611   c0.17,0.071,0.443,0.212,0.639,0.19c0.305-0.036,0.162-0.339,0-0.515c-0.172-0.186-0.395-0.863-0.453-1.106   c-0.549-2.249,0.291-3.102,0.527-3.447c0.004-0.007-0.086-0.138-0.117-0.2c-0.662-1.283-0.861-3.318-0.521-4.85   c0.279-1.254,1.162-2.204,1.73-3.329c0.488-0.966,0.816-2.079,0.75-3.16c-0.037-0.585-0.195-1.147-0.354-1.71   c-0.037-0.155-0.094-0.273-0.141-0.411c-0.047-0.134-0.148-0.271-0.227-0.419c-0.043-0.08-0.01-0.18,0.072-0.221   c0.389-0.197,0.887,1.476,0.945,1.7c0.52,1.992,0.16,3.733-0.76,5.569c-0.354,0.704-0.857,1.8-0.971,2.928   c-0.176,1.713,0.525,3.524,1.928,4.916c0.15-3.513,4.832-4.553,6.316-11.624c0.328-1.569,0.715-3.144,0.463-4.714   c-0.146-0.923-0.547-2.055-1.014-2.868c-1.779-3.095-5.291-5.094-8.893-4.889c-0.285,0.016-0.533,0.036-0.74,0.053   c-0.418,0.054-0.658,0.085-0.658,0.085c-0.094,0.012-0.178-0.043-0.189-0.125c-0.01-0.076,0.049-0.147,0.133-0.165   c2.15-0.485,4.354-0.523,6.359,0.312c0.125,0.05,0.246,0.109,0.365,0.171c0.1,0.049,0.4-0.039,0.221-0.306   c-1.291-2.265-3.305-3.85-7.605-3.833c-0.918,0.003-1.938,0.292-2.775,0.645c-0.227,0.094-0.432,0.22-0.65,0.331   c-0.141,0.073-0.473,0.234-0.586,0.05c-0.051-0.087,0.012-0.148,0.096-0.194c0.01-0.006,0.02-0.012,0.029-0.017   c0.203-0.115,0.393-0.236,0.588-0.366c0.08-0.052,0.166-0.109,0.27-0.168c2.631-1.489,5.359-1.461,7.736-0.407   c0.191,0.085,0.318-0.074,0.221-0.19c-3.379-3.974-11.041-1.834-14.299,1.247c-0.996,0.943-2.641,3.068-2.346,4.519   c0.805-0.5,2.51-1.518,4.785-1.309c1.896,0.175,2.598,1.186,3.205,2.055c-0.924-0.979-2.596-1.361-3.207-1.353   c-1.873,0.024-7.42,2.424-8.434,4.11c-0.316,0.523-0.391,1.131-0.258,1.724c0.051,0.223-0.408,0.658-0.721,0.851   c-1.59,0.986-3.123,2.072-4.451,3.395c-0.555,0.553-1.324,1.334-1.793,1.963c-0.43,0.577-0.111,0.925,0.299,1.733   c0.197,0.389,0.807,0.314,1.154,0.106c0.256-0.152,0.455-0.42,0.682-0.613c0.637-0.538,1.4-0.93,2.213-1.124   c0.26-0.062,0.611-0.093,0.67,0.249c0.041,0.247-0.139,0.324-0.35,0.344c-0.273,0.025-0.461,0.131-0.723,0.213   c-0.094,0.03-0.178,0.047-0.27,0.088c-0.123,0.057-0.129,0.089-0.176,0.202c-0.09,0.215-0.119,0.432-0.193,0.649   c-0.084,0.251-0.287,0.431-0.502,0.575c-0.34,0.227-0.879,0.264-0.932,0.516c-0.074,0.346,0.391,1.348,0.623,1.688   c0.586,0.862,1.475,1.61,2.387,2.087c1.232,0.642,2.943,1.471,4.361,1.202C19.521,32.099,21.033,31.829,21.516,30.818z    M18.67,20.358c-0.039,0.09-0.078,0.329-0.211,0.325c-0.07-0.001-0.107-0.109-0.121-0.167c-0.096-0.44-0.357-0.802-0.793-0.941   c-0.125-0.039-0.252-0.073-0.381-0.089c-0.055-0.007-0.113-0.005-0.168-0.019c-0.025-0.005-0.055-0.019-0.055-0.049   c0-0.038,0.098-0.184,0.125-0.188c0.084-0.013,0.365,0.017,0.447,0.018c0.24,0.002,0.469,0.075,0.701,0.128   c0.328,0.075,0.574-0.119,0.73-0.396c0.082-0.146,0.094-0.196,0.018-0.304c-0.229-0.329-0.188-0.882-0.09-1.252   c0.039-0.151,0.092-0.298,0.176-0.432c0.328-0.523,0.641-0.745,1.447-1.03c0.115-0.042,0.242,0.02,0.283,0.135   s-0.02,0.243-0.135,0.284c-0.32,0.112-0.664,0.226-0.922,0.455c-0.172,0.154-0.346,0.527-0.15,0.767   c0.146,0.179,0.324,0.171,0.529,0.183c0.391,0.022,0.779,0.067,1.166,0.118c0.133,0.018,0.299,0.016,0.371,0.092   c0.111,0.115-0.053,0.22-0.137,0.255c-0.16,0.068-0.33,0.113-0.492,0.182c-0.465,0.2-0.926,0.422-1.336,0.725   C19.252,19.469,18.889,19.876,18.67,20.358z"/><path fill="white" d="M85.98,78.414c-0.32-0.248-0.646-0.475-0.963-0.695c-1.623-1.129-0.834-2.076-1.59-5.676   c-0.441-1.635-0.98-3.322-1.613-5.029c-1.477-3.975-3.436-8.066-5.982-10.768c-6.648-7.047-11.943-8.25-15.293-9.302   c-1.139-0.358-2.039-0.641-2.686-1.017c-2.859-1.668-4.314-3.556-5.6-5.221c-1.205-1.561-2.568-3.019-4.279-4.029   c-1.48-0.874-3.225-0.862-4.693-1.645c-0.816-0.436-1.209-1.227-1.393-2.105c-0.125-0.601-0.486-1.065-0.502-1.67   c-0.363,0.381-0.666,0.869-1.004,1.271c-0.832,0.986-1.543,1.876-2.225,2.964c-0.68,1.082-1.443,1.234-2.338,0.22   c-0.098-0.109-0.252-0.341-0.426-0.297c-0.189,0.048-0.246,0.374-0.277,0.528c-0.287,1.446,0.148,3.25,0.85,4.536   c0.094,0.169,0.199,0.464,0.174,0.659c-3.836-0.807-6.041-3.215-5.992-3.283c-0.354,0.504,0.316,3.936,1.459,5.205   c-0.316,1.461-0.551,2.084-0.758,4.064c-0.291,2.779,0.006,5.577,0.336,8.338c0.307,2.577,0.672,5.146,1.355,7.654   c0.604,2.224,1.375,4.42,1.711,6.705c0.535,3.658,0.393,7.523,0.391,11.217v2.993c0,0.183,0.01,0.384,0.018,0.59   c0.033,0.771-0.141,2.111-0.498,2.823c-0.287,0.041-0.58,0.115-0.855,0.189l-0.242,0.064c-0.904,0.235-2.074,0.582-3.105,1.191   c-0.854,0.506-2.246,1.57-1.969,3.029c0.018,0.1,0.051,0.188,0.082,0.277h11.904c0.164-0.148,0.32-0.332,0.475-0.526   c1.025-1.292,0.691-3.635,0.689-5.171c-0.004-3.129,0.695-7.639,1.061-10.73c0.023-0.209,0.051-0.402,0.078-0.598   c0.201-2.229,0.395-4.807,0.367-6.295c-0.033-1.766-0.104-3.291-0.158-4.26c-0.053-0.318-0.125-0.886-0.064-1.107   c0.01-0.03,0.02-0.058,0.033-0.07c2.24-1.859,3.691-4.666,4.365-7.467c0.254-1.051,0.57-2.182,0.572-3.031   c0.002-0.223,0.018-0.469,0.033-0.727c0.043-0.664,0.09-1.418-0.131-1.946c-0.043-0.104,0.006-0.223,0.109-0.267   s0.223,0.005,0.266,0.109c0.26,0.615,1.041,2.033,0.918,4.277c-0.115,2.117-0.795,4.143-1.924,5.934   c-1.115,1.77-2.703,2.939-3.037,5.115c-0.174,1.13-0.115,2.285-0.096,3.423c0.02,1.012-0.059,2.482-0.17,4.009   c0.766,1.061,1.658,1.855,2.953,2.445c0.77,0.352,1.613,0.591,2.412,0.859c0.533,0.18,4.098,0.254,7.105,2.456   c0.301,0.22,0.447-0.041,0.271-0.407c-1.391-2.918-1.01-5.096-0.707-6.734c0.582-3.129,4.521-6.061,8.09-5.709   c0.113,0.012,0.199,0.102,0.193,0.215c-0.006,0.111-0.156,0.393-0.264,0.381c-3.107-0.146-6.162,2.684-6.709,5.637   c-0.838,4.51,1.873,9.465,5.184,12.422l0.08,0.072c0.781,0.684,1.551,1.396,2.492,1.861c0.139,0.068,0.277,0.084,0.389,0.209   c0.09,0.104,0.139,0.266,0.027,0.375s-0.299,0.083-0.439,0.068c-1.582-0.163-3.176-0.195-4.766-0.203   c-1.258-0.006-2.551-0.115-3.701,0.482c-0.598,0.312-1.021,0.534-1.467,0.992c-1.186,1.217-1.48,2.713-1.439,4.013h2.703   c0.609-0.569,2.219-2.136,3.795-2.538c1.607-0.41,3.096-0.686,6.721,0.039c2.219,0.443,4.482,0.552,6.74,0.566   c0.697,0.004,1.396,0,2.092-0.006c0.711-0.006,2.572-0.253,3.299-0.527c1.598-0.605,2.363-0.846,3.289-2.524   c0.32-0.579,0.438-1.214,0.654-1.829c0.248-0.705,0.67-1.33,1.271-1.777c1.053-0.782,2.586-0.723,3.418,0.133   c0.598,0.615,0.832,1.375,0.676,2.196c-0.297,1.561-1.982,3.173-3.439,3.833c-2.238,1.011-4.734,1.236-7.16,1.311   c-1.74,0.055-3.49,0.068-5.232,0.02c-2.027-0.053-3.84-0.23-5.699-0.557c-2.023-0.352-3.76-0.334-5.311,0.061   c-1.496,0.381-2.361,1.125-3.361,1.984c-0.332,0.285-0.674,0.577-1.057,0.874c0.4,0.103,0.912,0.247,1.479,0.405   c1.607,0.453,3.807,1.074,4.65,1.031c1.434-0.07,2.455-0.459,3.441-0.836c1.094-0.416,2.223-0.853,3.879-0.823l0.678,0.011   c1.232,0.02,2.047,0.033,3.461,0.017c6.756-0.079,11.555-0.841,13.873-2.199c1.623-0.95,2.525-2.132,2.84-3.718   C91.576,83.369,88.801,80.592,85.98,78.414z"/></g></svg>