<svg id="Layer_1" data-name="Layer 1" xmlns="http://www.w3.org/2000/svg" viewBox="0 0 535.95 1046.53"><defs><style>.cls-1{fill:#EA7FFB;}</style></defs><path class="cls-1" d="M802.78,488.79Q662,765.72,521.13,1042.6c-9.21,18.17-23.53,24.68-38.77,17.91-11.62-5.2-17.25-14.32-16.12-26.86,2.06-22.35,4.59-44.67,7.12-67q11.86-106,23.8-212.08C501,720.83,504.8,687,508.77,651.8H308.13c-31,0-44.45-21.57-30.7-49.3Q417.86,320.26,558.68,38.25c4.24-8.47,13.32-14.5,20.13-21.66h14.33c18.29,8.52,22.31,23.28,20,42.18-11.83,100-23.1,200.12-34.67,300.16-3,26.38-6.25,52.75-9.3,79.12a75.21,75.21,0,0,0-.05,7.78h11.31q98.58,0,197.2,0c20.61,0,32.66,12,30,29.6C806.92,480.06,804.92,484.6,802.78,488.79Z" transform="translate(-272.05 -16.59)"/></svg>