<svg id="Layer_1" data-name="Layer 1" xmlns="http://www.w3.org/2000/svg" viewBox="0 0 1022.09 965.4"><defs><style>.cls-1{fill:#fff;}</style></defs><path class="cls-1" d="M28.91,154.9V634.45a9,9,0,0,0,13.45,7.73L457.67,402.4a8.87,8.87,0,0,0,0-15.45L329.83,313.18a19.27,19.27,0,0,1-3.52-30.73c64.75-60.53,151.15-96.22,242-96.22,191.85,0,350.65,155.94,354.08,347.5C924.06,628.44,888,718.28,820.91,787.1,753.81,855.77,664.68,894,570.26,894.4a352.1,352.1,0,0,1-199.14-60.09l-13.43-9a19.16,19.16,0,0,0-26.3,4.77l-52.34,73.44a19.15,19.15,0,0,0,4.84,27L298,940a476.46,476.46,0,0,0,269.82,83c12.3,0,24.75-.43,37.2-1.43,235.48-17.46,426.61-208.16,444.49-443.64C1060,442,1014.76,312.27,922.34,212.55,831.21,114.13,702.17,57.61,568.26,57.61,427.89,57.61,295.49,119.82,205,223A19.17,19.17,0,0,1,181,227.21l-138.59-80A9,9,0,0,0,28.91,154.9Z" transform="translate(-28.91 -57.61)"/></svg>