<svg id="Layer_1" data-name="Layer 1" xmlns="http://www.w3.org/2000/svg" viewBox="0 0 687.2 1047.65"><defs><style>.cls-1{fill:#fff;}</style></defs><path class="cls-1" d="M508.34,25.13,533,73.49s96,23.18,124.38,63C682.46,164.4,725,210.59,725,210.59s8.87,28-24.63,31.55S634,191.81,634,191.81l102.11,200.4s1.1,80.87-49.32,25.13c-.24.12-63.92-124.85-63.92-124.85s21.48,122.05-50.62,28.5c2.24,9.72-6.78,103.89-67.13-9.22.13,16.22,2.61,58.39-39.76,33.83l-68.81-135s-1.79-46.14.28-58l-19.76-38.79s-15.38-30.16,13.61-58.5L464.9,17.4S490.94,12.28,508.34,25.13Z" transform="translate(-196.8 -16.4)"/><path class="cls-1" d="M720.49,492.11,671,485.64a46.69,46.69,0,0,1,5,17l33.94,353.65a48.45,48.45,0,0,1,.13,7.51,41.14,41.14,0,0,0,5.66-16.13l40.42-309.19A41.33,41.33,0,0,0,720.49,492.11Z" transform="translate(-196.8 -16.4)"/><path class="cls-1" d="M686.22,953,651.45,590.6a48.29,48.29,0,0,0-52.66-43.46l-18.15,1.75a51.52,51.52,0,0,1,15.85,28.23L671.61,960a51.5,51.5,0,0,1-7.49,38.31A48.23,48.23,0,0,0,686.22,953Z" transform="translate(-196.8 -16.4)"/><path class="cls-1" d="M492.33,514,239.88,563.51a53.33,53.33,0,0,0-42.07,62.62l77.47,394.81a53.36,53.36,0,0,0,62.63,42.1l252.45-49.56a53.31,53.31,0,0,0,42.07-62.61L555,556.06A53.37,53.37,0,0,0,492.33,514ZM472.12,779.37a9,9,0,0,1-.49,3q-18.25,64.43-36.56,128.83c-1.19,4.24-4,6.2-7.47,5.41a5.41,5.41,0,0,1-4.52-5c-.5-4.82-.87-9.65-1.28-14.47q-1.87-22.89-3.75-45.83c-.61-7.31-1.19-14.6-1.81-22.21-1,.18-1.85.34-2.69.53q-19.89,3.85-39.75,7.79c-6.55,1.26-10.32-2.71-8.56-9.16q18-65.52,36.08-131c.56-2,2.22-3.61,3.36-5.42l3-.59c4.22,1,5.67,4,6,8.09q2.48,32.46,5.11,64.92c.45,5.71.87,11.43,1.32,17.14,0,.48.2,1,.33,1.63.83-.15,1.61-.32,2.38-.45l41.69-8.2C468.93,773.49,472,775.52,472.12,779.37Z" transform="translate(-196.8 -16.4)"/><path class="cls-1" d="M845,720.11,739.66,921.73l37.12-283.92L827.5,664.3A41.35,41.35,0,0,1,845,720.11Z" transform="translate(-196.8 -16.4)"/><path class="cls-1" d="M871.89,819.25l-61,61a41.18,41.18,0,0,1-26.34,12l75.07-143.68,12.23,12.23A41.34,41.34,0,0,1,871.89,819.25Z" transform="translate(-196.8 -16.4)"/></svg>