<svg id="Layer_1" data-name="Layer 1" xmlns="http://www.w3.org/2000/svg" viewBox="0 0 961.39 1055.17"><defs><style>.cls-1{fill:#fff;}</style></defs><path class="cls-1" d="M387,1038.21V886.41L289.56,648S270,618.41,221.27,632.69c0,0-9,5.94,0,38.7s28.59,110,28.59,110,2,32-32.59,8.06S103.74,681.92,103.74,681.92l-47.11-135S43.4,515.16,7.92,522C1,524.16-2.14,527.87,1.57,550.1S35.45,722.68,35.45,722.68L209.62,987.41,208,1043.53s-3,11.65,25.77,11.65H370A16.93,16.93,0,0,0,387,1038.24Z" transform="translate(0 -0.01)"/><path class="cls-1" d="M574.4,1038.21V886.41L671.81,648s19.59-29.59,68.32-15.31c0,0,9,5.94,0,38.7s-28.58,110-28.58,110-2.06,32,32.58,8.06S857.66,681.92,857.66,681.92l47.12-135S918,515.16,953.48,522c6.88,2.12,10.06,5.83,6.35,28.06S926,722.68,926,722.68L751.78,987.41l1.59,56.12s3,11.65-25.77,11.65H591.4A17,17,0,0,1,574.4,1038.21Z" transform="translate(0 -0.01)"/><ellipse class="cls-1" cx="249.53" cy="218.48" rx="57.42" ry="73.08" transform="translate(-69.15 126.58) rotate(-25.12)"/><ellipse class="cls-1" cx="373.76" cy="90.07" rx="69.34" ry="88.25" transform="translate(-9.23 56.49) rotate(-8.54)"/><ellipse class="cls-1" cx="572.17" cy="85.88" rx="86.62" ry="68.06" transform="translate(365.71 626.36) rotate(-77.63)"/><ellipse class="cls-1" cx="700.58" cy="225.81" rx="72.66" ry="57.09" transform="translate(109.46 664.4) rotate(-54.44)"/><path class="cls-1" d="M565.87,527.09c-50.11-20.15-96-24.13-96-24.13s-45.95,4-96.06,24.13-182.7-67.55-69.94-179.26c0,0,61.59-35.49,79.34-91.88s86.66-60.47,86.66-60.47,68.9,4.1,86.65,60.47,79.34,91.88,79.34,91.88C748.58,459.54,616,547.24,565.87,527.09Z" transform="translate(0 -0.01)"/><path class="cls-1" d="M151.82,387.41,143.3,399a5.78,5.78,0,0,1-5.31,2.3l-71-8.44c-10.64-1.26-10.65-16.71,0-18l70.23-8.39a5.73,5.73,0,0,1,5.2,2.15l9.29,11.82A5.78,5.78,0,0,1,151.82,387.41Z" transform="translate(0 -0.01)"/><path class="cls-1" d="M810.28,378.61l8.51,11.56a5.79,5.79,0,0,0,5.32,2.3l71-8.44c10.64-1.26,10.65-16.71,0-18l-70.23-8.39a5.73,5.73,0,0,0-5.2,2.15l-9.28,11.83A5.76,5.76,0,0,0,810.28,378.61Z" transform="translate(0 -0.01)"/><path class="cls-1" d="M222.26,498.17l2.14,14.24a5.76,5.76,0,0,1-2.13,5.39l-56.2,44.26c-8.42,6.64-19.34-4.28-12.72-12.71l43.73-55.59a5.74,5.74,0,0,1,5.2-2.16l14.95,1.75A5.77,5.77,0,0,1,222.26,498.17Z" transform="translate(0 -0.01)"/><path class="cls-1" d="M721.78,498.08l-2.15,14.2a5.76,5.76,0,0,0,2.13,5.39L778,561.93c8.42,6.64,19.35-4.28,12.72-12.71L747,493.63a5.74,5.74,0,0,0-5.2-2.16l-15,1.76A5.76,5.76,0,0,0,721.78,498.08Z" transform="translate(0 -0.01)"/></svg>