<svg id="Layer_1" data-name="Layer 1" xmlns="http://www.w3.org/2000/svg" viewBox="0 0 879.06 1028.67"><defs><style>.cls-1{fill:#fff;}</style></defs><path class="cls-1" d="M454.77,1016.66V904.91a22.53,22.53,0,0,0-1.68-8.54l-86-210.59a21.83,21.83,0,0,0-4.78-7.27c-5.73-5.65-18.87-15.16-41.38-13.41a22.44,22.44,0,0,0-20.51,25.57,115.57,115.57,0,0,0,2.88,13.17c7.13,26,21.53,82.49,25.24,97.12a20.76,20.76,0,0,1,.07,10.81c-2,6.91-8.38,14.29-29,.07C272,792.77,213.75,732.31,199.16,717a22.51,22.51,0,0,1-5-8.13L153.12,591.19a21.93,21.93,0,0,0-1.16-2.73c-3.09-6-16-26.58-43.78-21.18-6.29,1.93-9.2,5.32-5.81,25.65,3,18.19,25.42,130.09,30.12,153.51a22.58,22.58,0,0,0,3.27,8L288.7,986.83a22.59,22.59,0,0,1,3.71,13l-1.26,44.21s-2.74,10.65,23.56,10.65h102A38.08,38.08,0,0,0,454.77,1016.66Z" transform="translate(-100.94 -26.05)"/><path class="cls-1" d="M626.17,1016.66V904.91a22.53,22.53,0,0,1,1.68-8.54l86-210.59a21.83,21.83,0,0,1,4.78-7.27c5.73-5.65,18.87-15.16,41.38-13.41a22.44,22.44,0,0,1,20.51,25.57,115.57,115.57,0,0,1-2.88,13.17c-7.13,26-21.53,82.49-25.24,97.12a20.76,20.76,0,0,0-.07,10.81c2,6.91,8.38,14.29,29,.07,27.59-19.07,85.85-79.53,100.44-94.83a22.65,22.65,0,0,0,5-8.13l41.07-117.69a21.93,21.93,0,0,1,1.16-2.73c3.09-6,15.95-26.58,43.78-21.18,6.29,1.93,9.2,5.32,5.81,25.65-3,18.19-25.42,130.09-30.12,153.51a22.58,22.58,0,0,1-3.27,8L792.24,986.83a22.59,22.59,0,0,0-3.71,13l-.78,45.39s0,8.36-21.52,9.47h-102A38.08,38.08,0,0,1,626.17,1016.66Z" transform="translate(-100.94 -26.05)"/><ellipse class="cls-1" cx="375.92" cy="179.45" rx="40.32" ry="51.31" transform="translate(-141.57 150.51) rotate(-25.12)"/><ellipse class="cls-1" cx="463.15" cy="89.28" rx="48.69" ry="61.96" transform="translate(-109.06 43.74) rotate(-8.54)"/><ellipse class="cls-1" cx="602.44" cy="86.35" rx="60.82" ry="47.79" transform="translate(288.14 630.26) rotate(-77.63)"/><ellipse class="cls-1" cx="692.6" cy="184.58" rx="51.02" ry="40.09" transform="translate(38.76 614.66) rotate(-54.44)"/><path class="cls-1" d="M530.6,379.22a262.87,262.87,0,0,0-67.45,16.94C428,410.3,334.87,348.73,414,270.29c0,0,43.25-24.93,55.71-64.51s60.85-42.47,60.85-42.47Z" transform="translate(-100.94 -26.05)"/><path class="cls-1" d="M530.6,379.22A262.85,262.85,0,0,1,598,396.16c35.19,14.14,128.29-47.43,49.12-125.87,0,0-43.26-24.93-55.72-64.51s-60.84-42.47-60.84-42.47Z" transform="translate(-100.94 -26.05)"/><path class="cls-1" d="M265.88,327.64l-8.52,11.56a5.77,5.77,0,0,1-5.32,2.31L181,333.07c-10.65-1.27-10.66-16.72,0-18l70.26-8.39a5.74,5.74,0,0,1,5.21,2.15l9.33,11.82A5.76,5.76,0,0,1,265.88,327.64Z" transform="translate(-100.94 -26.05)"/><path class="cls-1" d="M804,327.64l8.52,11.56a5.77,5.77,0,0,0,5.32,2.31l71.07-8.44c10.65-1.27,10.65-16.72,0-18l-70.26-8.39a5.73,5.73,0,0,0-5.2,2.15l-9.34,11.82A5.78,5.78,0,0,0,804,327.64Z" transform="translate(-100.94 -26.05)"/><path class="cls-1" d="M411.52,495.64l2.16,14.21a5.77,5.77,0,0,1-2.14,5.39l-56.22,44.28c-8.42,6.64-19.35-4.29-12.72-12.72l43.74-55.62a5.79,5.79,0,0,1,5.2-2.16l15,1.76A5.77,5.77,0,0,1,411.52,495.64Z" transform="translate(-100.94 -26.05)"/><path class="cls-1" d="M639.88,490l-2.15,14.21a5.76,5.76,0,0,0,2.13,5.39l56.22,44.28c8.42,6.64,19.36-4.28,12.73-12.71l-43.75-55.62a5.74,5.74,0,0,0-5.2-2.16l-15,1.75A5.77,5.77,0,0,0,639.88,490Z" transform="translate(-100.94 -26.05)"/></svg>