<svg id="Layer_1" data-name="Layer 1" xmlns="http://www.w3.org/2000/svg" viewBox="0 0 990.09 826.79"><defs><style>.cls-1,.cls-2{fill:#fff;}.cls-1{opacity:0.42;}</style></defs><path class="cls-1" d="M894.11,212.37l-52.36-6.85a49.66,49.66,0,0,1,5.25,18l35.92,374.3a50.43,50.43,0,0,1,.14,8,43.74,43.74,0,0,0,6-17.07l42.78-327.25A43.75,43.75,0,0,0,894.11,212.37Z" transform="translate(-68.91 -136.33)"/><path class="cls-1" d="M857.85,602,821,218.51a51.09,51.09,0,0,0-55.73-46l-19.21,1.84a54.47,54.47,0,0,1,16.77,29.89l79.52,405.19A54.55,54.55,0,0,1,834.46,650,51.08,51.08,0,0,0,857.85,602Z" transform="translate(-68.91 -136.33)"/><path class="cls-2" d="M660.81,137.39,393.62,189.84a56.44,56.44,0,0,0-44.53,66.27l82,417.87a56.47,56.47,0,0,0,66.29,44.56l267.19-52.45a56.43,56.43,0,0,0,44.53-66.27L727.09,182A56.46,56.46,0,0,0,660.81,137.39ZM639.42,418.31a9.76,9.76,0,0,1-.52,3.18q-19.33,68.19-38.69,136.36c-1.27,4.48-4.2,6.55-7.91,5.72a5.72,5.72,0,0,1-4.79-5.32c-.53-5.1-.92-10.21-1.35-15.32q-2-24.21-4-48.51c-.65-7.73-1.26-15.45-1.92-23.5-1.06.19-2,.36-2.85.56q-21,4.08-42.06,8.24c-6.94,1.34-10.93-2.87-9.06-9.69q19.05-69.34,38.18-138.67c.59-2.08,2.35-3.82,3.55-5.74l3.23-.62c4.46,1.11,6,4.22,6.33,8.56,1.75,22.9,3.6,45.8,5.41,68.71.48,6.05.93,12.1,1.4,18.14,0,.51.21,1,.35,1.73.87-.16,1.7-.34,2.51-.48L631.4,413C636,412.09,639.27,414.24,639.42,418.31Z" transform="translate(-68.91 -136.33)"/><path class="cls-1" d="M1025.9,355.59,914.4,569l39.29-300.51,53.69,28A43.78,43.78,0,0,1,1025.9,355.59Z" transform="translate(-68.91 -136.33)"/><path class="cls-1" d="M1046.18,460.51l-64.52,64.55a43.59,43.59,0,0,1-27.87,12.7l79.45-152.07,12.94,12.94A43.75,43.75,0,0,1,1046.18,460.51Z" transform="translate(-68.91 -136.33)"/><path class="cls-2" d="M849,803.75l1.7,17.55a7.06,7.06,0,0,0,4.15,5.78L935.05,863c12,5.38,21.75-10.89,11.34-18.94l-68.72-53.1a7.08,7.08,0,0,0-6.84-1l-17.27,6.58A7.07,7.07,0,0,0,849,803.75Z" transform="translate(-68.91 -136.33)"/><path class="cls-2" d="M625.27,853.3l-11.2,13.62a7.08,7.08,0,0,0-1.14,7l31.44,82c4.71,12.29,23.1,7.65,21.41-5.41l-11.17-86.12a7.06,7.06,0,0,0-4.12-5.55l-16.87-7.54A7.07,7.07,0,0,0,625.27,853.3Z" transform="translate(-68.91 -136.33)"/><path class="cls-2" d="M342.13,866.8l-17.3-3.36a7.06,7.06,0,0,0-6.72,2.33l-57.18,66.67c-8.57,10,4.26,24,14.94,16.26l70.44-50.79a7.09,7.09,0,0,0,2.92-6.27l-1.39-18.43A7.08,7.08,0,0,0,342.13,866.8Z" transform="translate(-68.91 -136.33)"/><path class="cls-2" d="M177.66,621.91l-14-10.71a7.07,7.07,0,0,0-7.06-.9L75.73,644.56c-12.12,5.14-6.84,23.35,6.15,21.21l85.68-14.14a7.06,7.06,0,0,0,5.4-4.32l7-17.12A7.09,7.09,0,0,0,177.66,621.91Z" transform="translate(-68.91 -136.33)"/><path class="cls-2" d="M176.43,322.89l-2.73-17.42a7.09,7.09,0,0,0-4.49-5.52L87.05,268.9c-12.32-4.65-21.07,12.18-10.2,19.59l71.76,48.92a7.07,7.07,0,0,0,6.89.61l16.85-7.59A7.08,7.08,0,0,0,176.43,322.89Z" transform="translate(-68.91 -136.33)"/></svg>