<svg id="Layer_1" data-name="Layer 1" xmlns="http://www.w3.org/2000/svg" viewBox="0 0 751.06 977.17"><defs><style>.cls-1{fill:#fff;}</style></defs><path class="cls-1" d="M467.25,996.44V901a19.27,19.27,0,0,0-1.44-7.3L392.3,713.74a18.54,18.54,0,0,0-4.09-6.21c-4.88-4.83-16.11-13-35.35-11.46a19.17,19.17,0,0,0-17.52,21.84,96.85,96.85,0,0,0,2.46,11.26c6.09,22.18,18.39,70.48,21.57,83a17.8,17.8,0,0,1,.05,9.25c-1.68,5.9-7.16,12.21-24.75.05-23.57-16.29-73.35-68-85.81-81a19.08,19.08,0,0,1-4.24-6.95l-35.1-100.55a17.71,17.71,0,0,0-1-2.33c-2.64-5.1-13.63-22.71-37.4-18.1-5.38,1.66-7.86,4.55-5,21.92,2.59,15.54,21.72,111.14,25.74,131.16a19.19,19.19,0,0,0,2.79,6.8L325.36,971a19.32,19.32,0,0,1,3.17,11.15l-1.07,37.76s-2.35,9.1,20.12,9.1h87.14A32.53,32.53,0,0,0,467.25,996.44Z" transform="translate(-164.94 -51.8)"/><path class="cls-1" d="M613.69,996.44V901a19.27,19.27,0,0,1,1.44-7.3l73.51-179.92a18.54,18.54,0,0,1,4.09-6.21c4.88-4.83,16.11-13,35.35-11.46a19.17,19.17,0,0,1,17.52,21.84,96.85,96.85,0,0,1-2.46,11.26c-6.09,22.18-18.39,70.48-21.57,83a17.77,17.77,0,0,0-.05,9.24c1.68,5.91,7.15,12.22,24.75.06,23.57-16.29,73.34-68,85.81-81a19.08,19.08,0,0,0,4.24-6.95l35.1-100.55a17.71,17.71,0,0,1,1-2.33c2.64-5.1,13.63-22.71,37.4-18.1,5.38,1.66,7.86,4.55,5,21.92C912.19,650,893.06,745.55,889,765.57a19.19,19.19,0,0,1-2.79,6.8L755.58,971a19.32,19.32,0,0,0-3.17,11.15l-.67,38.78s0,7.14-18.38,8.08H646.22A32.52,32.52,0,0,1,613.69,996.44Z" transform="translate(-164.94 -51.8)"/><path class="cls-1" d="M305.86,407.74l-7.28,9.89a4.93,4.93,0,0,1-4.54,2l-60.72-7.21c-9.1-1.08-9.11-14.28,0-15.37l60-7.17a4.9,4.9,0,0,1,4.45,1.84l8,10.09A4.91,4.91,0,0,1,305.86,407.74Z" transform="translate(-164.94 -51.8)"/><path class="cls-1" d="M765.58,407.74l7.28,9.89a4.94,4.94,0,0,0,4.55,2l60.72-7.21c9.1-1.08,9.1-14.28,0-15.37l-60-7.17a4.91,4.91,0,0,0-4.45,1.84l-8,10.09A4.94,4.94,0,0,0,765.58,407.74Z" transform="translate(-164.94 -51.8)"/><path class="cls-1" d="M430.3,551.29l1.84,12.13a5,5,0,0,1-1.82,4.61l-48,37.83c-7.2,5.68-16.54-3.66-10.87-10.86l37.38-47.52a4.9,4.9,0,0,1,4.44-1.85L426,547.14A4.9,4.9,0,0,1,430.3,551.29Z" transform="translate(-164.94 -51.8)"/><path class="cls-1" d="M625.4,546.46l-1.84,12.14a4.91,4.91,0,0,0,1.83,4.6l48,37.84c7.2,5.67,16.54-3.66,10.87-10.87l-37.37-47.52a4.94,4.94,0,0,0-4.45-1.84l-12.77,1.5A4.93,4.93,0,0,0,625.4,546.46Z" transform="translate(-164.94 -51.8)"/><path class="cls-1" d="M623.7,52,427.89,51.8a40.58,40.58,0,0,0-40.64,40.55l-.32,306.22a40.6,40.6,0,0,0,40.55,40.66l195.81.2a40.59,40.59,0,0,0,40.64-40.56l.33-306.21A40.61,40.61,0,0,0,623.7,52ZM569.5,247.2a6.81,6.81,0,0,1-.81,2.17q-23.13,45.42-46.28,90.81c-1.52,3-3.88,4-6.38,2.94a4.13,4.13,0,0,1-2.64-4.42c.35-3.67.78-7.33,1.19-11q2-17.37,3.95-34.78c.62-5.55,1.26-11.07,1.92-16.85-.78,0-1.43,0-2.09,0q-15.42,0-30.82,0c-5.09,0-7.31-3.55-5.05-8.1q23.1-46.27,46.25-92.52c.7-1.38,2.19-2.37,3.3-3.55h2.36c3,1.4,3.65,3.81,3.28,6.92-2,16.4-3.84,32.82-5.75,49.23-.5,4.33-1,8.66-1.54,13,0,.37,0,.75,0,1.27h1.84l32.34,0C568,242.34,570,244.31,569.5,247.2Z" transform="translate(-164.94 -51.8)"/></svg>