<svg id="Layer_1" data-name="Layer 1" xmlns="http://www.w3.org/2000/svg" viewBox="0 0 1059.18 906.23"><defs><style>.cls-1,.cls-2{fill:#fff;}.cls-1{opacity:0.42;}</style></defs><path class="cls-1" d="M878.9,242.16l-80.26-10.49a75.92,75.92,0,0,1,8,27.58l55.06,573.69a77.67,77.67,0,0,1,.21,12.18A66.89,66.89,0,0,0,871.13,819l65.58-501.57A67.08,67.08,0,0,0,878.9,242.16Z" transform="translate(-10.82 -87.08)"/><path class="cls-1" d="M823.31,839.39,766.9,251.58a78.3,78.3,0,0,0-85.42-70.49L652,183.92a83.44,83.44,0,0,1,25.71,45.8l121.87,621a83.53,83.53,0,0,1-12.15,62.14A78.22,78.22,0,0,0,823.31,839.39Z" transform="translate(-10.82 -87.08)"/><path class="cls-2" d="M482.27,89.56,76.85,188.61a86.51,86.51,0,0,0-63.53,104.6l154.86,634a86.54,86.54,0,0,0,104.61,63.57l405.42-99.05a86.49,86.49,0,0,0,63.53-104.59l-154.86-634A86.55,86.55,0,0,0,482.27,89.56Zm-13,431.62a14.49,14.49,0,0,1-.57,4.9Q443.86,631.83,419,737.57c-1.63,7-6,10.34-11.71,9.32-4.38-.82-7-3.44-7.7-7.81-1.17-7.78-2.13-15.57-3.14-23.36q-4.76-36.94-9.49-74c-1.54-11.79-3-23.56-4.58-35.85-1.61.36-3,.69-4.32,1.06q-31.93,7.74-63.83,15.57c-10.53,2.54-16.93-3.62-14.55-14.21q24.29-107.49,48.73-215c.76-3.22,3.33-6,5-9,1.66-.38,3.24-.79,4.9-1.17,6.91,1.38,9.48,6,10.3,12.66q6.42,52.41,13.1,104.83c1.16,9.22,2.27,18.45,3.42,27.67a26.37,26.37,0,0,0,.66,2.62c1.32-.3,2.57-.64,3.81-.91l67-16.37C463.62,511.88,468.71,515,469.22,521.18Z" transform="translate(-10.82 -87.08)"/><path class="cls-1" d="M1063.54,476.74,919.25,752.9,970.1,364l69.48,36.29A56.63,56.63,0,0,1,1063.54,476.74Z" transform="translate(-10.82 -87.08)"/></svg>