<svg id="Layer_1" data-name="Layer 1" xmlns="http://www.w3.org/2000/svg" viewBox="0 0 935.4 1015.37"><defs><style>.cls-1{fill:#fff;}</style></defs><path class="cls-1" d="M449.11,989.38V870.46a24,24,0,0,0-1.79-9.08L355.77,637.3a23.21,23.21,0,0,0-5.09-7.74c-6.09-6-20.07-16.14-44-14.28a23.9,23.9,0,0,0-21.83,27.21,126,126,0,0,0,3.06,14c7.59,27.62,22.92,87.78,26.87,103.34a22.14,22.14,0,0,1,.07,11.51c-2.09,7.35-8.92,15.21-30.83.07-29.35-20.29-91.35-84.63-106.87-100.91a23.84,23.84,0,0,1-5.29-8.65l-43.7-125.23a21.93,21.93,0,0,0-1.24-2.91c-3.29-6.34-17-28.28-46.58-22.53-6.7,2.06-9.79,5.66-6.18,27.3,3.22,19.34,27.05,138.41,32,163.34a23.87,23.87,0,0,0,3.49,8.47L272.39,957.63a24,24,0,0,1,3.95,13.89l-1.33,47s-2.92,11.33,25.06,11.33H408.6A40.51,40.51,0,0,0,449.11,989.38Z" transform="translate(-72.6 -14.52)"/><path class="cls-1" d="M631.5,989.38V870.46a24,24,0,0,1,1.78-9.08L724.84,637.3a23.05,23.05,0,0,1,5.09-7.74c6.08-6,20.07-16.14,44-14.28a23.9,23.9,0,0,1,21.82,27.21,121.6,121.6,0,0,1-3.06,14c-7.59,27.62-22.91,87.78-26.87,103.34a22.24,22.24,0,0,0-.07,11.51c2.1,7.35,8.92,15.21,30.83.07C826,751.14,888,686.8,903.48,670.52a23.84,23.84,0,0,0,5.29-8.65l43.71-125.23a23.28,23.28,0,0,1,1.23-2.91c3.29-6.34,17-28.28,46.59-22.53,6.69,2.06,9.78,5.66,6.18,27.29-3.23,19.36-27.06,138.42-32.05,163.35a23.94,23.94,0,0,1-3.49,8.47L808.21,957.63a24,24,0,0,0-4,13.89l-.83,48.29s0,8.9-22.9,10.07H672A40.5,40.5,0,0,1,631.5,989.38Z" transform="translate(-72.6 -14.52)"/><path class="cls-1" d="M662.52,14.76l-244.35-.24a50.64,50.64,0,0,0-50.72,50.61L367,447.27A50.68,50.68,0,0,0,417.66,498l244.35.24a50.64,50.64,0,0,0,50.72-50.61l.41-382.14A50.68,50.68,0,0,0,662.52,14.76ZM594.88,258.37a8.5,8.5,0,0,1-1,2.71Q565,317.75,536.12,374.41c-1.9,3.73-4.84,5-8,3.66a5.13,5.13,0,0,1-3.29-5.51c.42-4.59,1-9.16,1.47-13.72q2.46-21.68,4.93-43.4c.77-6.93,1.58-13.82,2.4-21-1,0-1.79,0-2.61,0q-19.23-.06-38.46-.05c-6.35,0-9.12-4.43-6.29-10.11q28.8-57.74,57.7-115.45c.88-1.73,2.73-3,4.13-4.44h2.94c3.74,1.75,4.55,4.76,4.09,8.64-2.44,20.47-4.79,41-7.17,61.44-.63,5.4-1.29,10.81-1.92,16.21-.05.46,0,.93,0,1.58.79,0,1.55,0,2.29,0l40.36,0C593,252.3,595.46,254.76,594.88,258.37Z" transform="translate(-72.6 -14.52)"/></svg>