<svg id="Layer_1" data-name="Layer 1" xmlns="http://www.w3.org/2000/svg" viewBox="0 0 855.06 1008.3"><defs><style>.cls-1{fill:#fff;}</style></defs><path class="cls-1" d="M966,460.75C966,224.63,774.59,33.22,538.47,33.22S110.94,224.63,110.94,460.75c0,160,87.93,299.54,218.12,372.82a61,61,0,0,0-1.78,14.64V979.87a61.84,61.84,0,0,0,61.66,61.65h5.7a20.2,20.2,0,0,0,20.21-20.2V865.75a40.54,40.54,0,0,1,39.72-40.55c22.77-.47,41.4,18.73,41.4,41.5v158.51a16.32,16.32,0,0,0,16.32,16.31H554.4a16.25,16.25,0,0,0,16.26-16.26V865.75a40.54,40.54,0,0,1,39.73-40.55c22.77-.47,41.4,18.73,41.4,41.5v158.59A16.24,16.24,0,0,0,668,1041.52h20a61.84,61.84,0,0,0,61.66-61.65V848.21a61,61,0,0,0-1.78-14.64C878.07,760.29,966,620.79,966,460.75ZM358.19,566.35A144.23,144.23,0,1,1,502.41,422.12,144.22,144.22,0,0,1,358.19,566.35ZM580.17,708H495.49a16.43,16.43,0,0,1-14.74-23.68l42.34-85.92a16.43,16.43,0,0,1,29.47,0l42.34,85.92A16.42,16.42,0,0,1,580.17,708ZM714.89,566.35A144.23,144.23,0,1,1,859.12,422.12,144.22,144.22,0,0,1,714.89,566.35Z" transform="translate(-110.94 -33.22)"/><path class="cls-1" d="M404,449.41a12.82,12.82,0,0,1-18.12,18.13l-27.3-27.29-27.06,27.06a12.82,12.82,0,0,1-18.13-18.12l27.07-27.07-27.07-27.07a12.82,12.82,0,1,1,18.13-18.12L358.6,404l27.3-27.29a12.84,12.84,0,0,1,18.12,0,12.81,12.81,0,0,1,0,18.13l-27.29,27.29Z" transform="translate(-110.94 -33.22)"/><path class="cls-1" d="M760.72,449.41a12.82,12.82,0,0,1-18.12,18.13l-27.3-27.29-27,27.06a12.82,12.82,0,1,1-18.13-18.12l27.06-27.07-27.06-27.07a12.82,12.82,0,1,1,18.13-18.12l27,27.06,27.3-27.29a12.84,12.84,0,0,1,18.12,0,12.81,12.81,0,0,1,0,18.13l-27.29,27.29Z" transform="translate(-110.94 -33.22)"/><path class="cls-1" d="M966,460.11c0-187.33-120.47-346.51-288.17-404.3,147.33,73.13,248.58,225.12,248.58,400.77,0,167.41-91.95,313.32-228.13,390a63.87,63.87,0,0,1,1.85,15.31V999.57a64.25,64.25,0,0,1-15.06,41.31H688a61.85,61.85,0,0,0,61.66-61.66V847.56a61.07,61.07,0,0,0-1.78-14.64C878.07,759.65,966,620.15,966,460.11Z" transform="translate(-110.94 -33.22)"/></svg>