<svg id="Layer_1" data-name="Layer 1" xmlns="http://www.w3.org/2000/svg" viewBox="0 0 883.26 1050.78"><defs><style>.cls-1{fill:#EA7FFB;}</style></defs><ellipse class="cls-1" cx="338.48" cy="250.73" rx="62.18" ry="79.14" transform="translate(-172.17 153.26) rotate(-25.12)"/><ellipse class="cls-1" cx="473.02" cy="111.66" rx="75.09" ry="95.57" transform="translate(-109.08 57.36) rotate(-8.54)"/><ellipse class="cls-1" cx="687.83" cy="107.14" rx="93.8" ry="73.7" transform="translate(338.14 741.92) rotate(-77.63)"/><ellipse class="cls-1" cx="826.9" cy="258.64" rx="78.69" ry="61.83" transform="translate(37.91 766.82) rotate(-54.44)"/><path class="cls-1" d="M681,585c-54.24-21.83-104-26.14-104-26.14S527.3,563.14,473,585s-197.84-73.15-75.76-194.14c0,0,66.74-38.42,86-99.51s93.84-65.48,93.84-65.48,74.59,4.45,93.84,65.48,85.92,99.51,85.92,99.51C878.92,511.82,735.33,606.75,681,585Z" transform="translate(-97.74 -14.15)"/><path class="cls-1" d="M159.7,962.49a5.62,5.62,0,0,0,1.16.19c8.29.6,102.57,7.86,151.18,34.15,50.86,27.52,105.06,52.53,105.06,52.53S473,1079,532.54,1056.53a6.79,6.79,0,0,1,2.44-.43c6.21,0,40.68-3.11,172.44-60.52,6.57-2.87,4.7-12.66-2.47-12.88-47.65-1.45-136-5-140.26-11.72-5.83-9.17,4.17-10.84,16.68-10s227.15,14.76,251.22,9.32a6.49,6.49,0,0,1,1.38-.16c19.84-.2,76.39-8.13,32.46-60.84a5.9,5.9,0,0,0-1.18-1.11c-4.37-3-15.06-24.08-118.78-28.1-107.3-4.16-194.69-5-230.71-35.63-.18-.15-.36-.29-.55-.42-91.68-62.39-207.51-84-371.61-66.51l-.87.1a50.87,50.87,0,0,0-45,50.54v96.65A32.4,32.4,0,0,0,126,957C138.55,958.58,152.19,960.6,159.7,962.49Z" transform="translate(-97.74 -14.15)"/><path class="cls-1" d="M873.21,892.6s-27.51-22.51-86.72-24.18L905.73,784.2s36.69-24.18,60-6.67,13.34,35.85,11.68,38.36S873.21,892.6,873.21,892.6Z" transform="translate(-97.74 -14.15)"/><path class="cls-1" d="M771.49,865.92l-65.88-1.67L827.35,781.7s45-35,67.54-4.17Z" transform="translate(-97.74 -14.15)"/><path class="cls-1" d="M796.5,790.87,689.77,863.42l-49.2-2.51L729,804.21S774.82,767.52,796.5,790.87Z" transform="translate(-97.74 -14.15)"/><path class="cls-1" d="M694.77,814.22l-73.38,46.69-31.68-2.5,62.54-38.35S680.6,799.21,694.77,814.22Z" transform="translate(-97.74 -14.15)"/></svg>