<?xml version="1.0" encoding="UTF-8" standalone="no" ?>
<!DOCTYPE svg PUBLIC "-//W3C//DTD SVG 1.1//EN" "http://www.w3.org/Graphics/SVG/1.1/DTD/svg11.dtd">
<svg xmlns="http://www.w3.org/2000/svg" xmlns:xlink="http://www.w3.org/1999/xlink" version="1.1" width="1080" height="1080" viewBox="0 0 1080 1080" xml:space="preserve">
<desc>Created with Fabric.js 5.2.4</desc>
<defs>
</defs>
<rect x="0" y="0" width="100%" height="100%" fill="transparent"></rect>
<g transform="matrix(1 0 0 1 540 540)" id="4cf223b8-3d7a-4cb7-9be4-c8936616d0cb"  >
<rect style="stroke: none; stroke-width: 1; stroke-dasharray: none; stroke-linecap: butt; stroke-dashoffset: 0; stroke-linejoin: miter; stroke-miterlimit: 4; fill: rgb(255,255,255); fill-rule: nonzero; opacity: 1; visibility: hidden;" vector-effect="non-scaling-stroke"  x="-540" y="-540" rx="0" ry="0" width="1080" height="1080" />
</g>
<g transform="matrix(1 0 0 1 540 540)" id="116a8ed6-197d-4850-ada0-bbc632c46050"  >
</g>
<g transform="matrix(1 0 0 1 540 541.32)"  >
<g style="" vector-effect="non-scaling-stroke"   >
		<g transform="matrix(1 0 0 1 14.16 -313.55)"  >
<path style="stroke: none; stroke-width: 1; stroke-dasharray: none; stroke-linecap: butt; stroke-dashoffset: 0; stroke-linejoin: miter; stroke-miterlimit: 4; fill: rgb(255,255,255); fill-rule: nonzero; opacity: 1;" vector-effect="non-scaling-stroke"  transform=" translate(-554.55, -226.67)" d="M 508.34 25.13 L 533 73.49 C 533 73.49 629 96.66999999999999 657.38 136.49 C 682.46 164.4 725 210.59 725 210.59 C 725 210.59 733.87 238.59 700.37 242.14000000000001 C 666.87 245.69000000000003 634 191.81 634 191.81 L 736.11 392.21000000000004 C 736.11 392.21000000000004 737.21 473.08000000000004 686.79 417.34000000000003 C 686.55 417.46000000000004 622.87 292.49 622.87 292.49 C 622.87 292.49 644.35 414.54 572.25 320.99 C 574.49 330.71000000000004 565.47 424.88 505.12 311.77 C 505.25 327.99 507.73 370.15999999999997 465.36 345.59999999999997 L 396.55 210.59999999999997 C 396.55 210.59999999999997 394.76 164.45999999999998 396.83 152.59999999999997 L 377.07 113.80999999999997 C 377.07 113.80999999999997 361.69 83.64999999999998 390.68 55.309999999999974 L 464.9 17.4 C 464.9 17.4 490.94 12.28 508.34 25.13 Z" stroke-linecap="round" />
</g>
		<g transform="matrix(1 0 0 1 173.36 134.5)"  >
<path style="stroke: none; stroke-width: 1; stroke-dasharray: none; stroke-linecap: butt; stroke-dashoffset: 0; stroke-linejoin: miter; stroke-miterlimit: 4; fill: rgb(255,255,255); fill-rule: nonzero; opacity: 1;" vector-effect="non-scaling-stroke"  transform=" translate(-713.75, -674.72)" d="M 720.49 492.11 L 671 485.64 C 673.7365672623562 490.9355420161963 675.4337949506645 496.7061161564447 676 502.64 L 709.94 856.29 C 710.1776042576324 858.7861976968375 710.2210681666181 861.2970742851661 710.07 863.8 C 713.0652163271118 858.8789294976424 714.9935031352534 853.383652781154 715.73 847.67 L 756.15 538.48 C 757.5793009970216 527.6006136269384 754.6236164934879 516.5994014125696 747.9344254357936 507.9012020478672 C 741.2452343780992 499.2030026831648 731.3716628664523 493.5218648856457 720.49 492.11 Z" stroke-linecap="round" />
</g>
		<g transform="matrix(1 0 0 1 93.15 232.4)"  >
<path style="stroke: none; stroke-width: 1; stroke-dasharray: none; stroke-linecap: butt; stroke-dashoffset: 0; stroke-linejoin: miter; stroke-miterlimit: 4; fill: rgb(255,255,255); fill-rule: nonzero; opacity: 1;" vector-effect="non-scaling-stroke"  transform=" translate(-633.54, -772.61)" d="M 686.22 953 L 651.45 590.6 C 648.9040223888005 564.060098562413 625.3309913334157 544.6054094308705 598.7900000000001 547.14 L 580.6400000000001 548.89 C 588.8195140927934 556.3523794367413 594.3773645175697 566.251314294245 596.4900000000001 577.12 L 671.61 960 C 674.2371876963656 973.2581017207987 671.547062381928 987.0176078350984 664.12 998.31 C 679.4219569966875 988.5650765774301 687.961182407482 971.057732533851 686.22 953 Z" stroke-linecap="round" />
</g>
		<g transform="matrix(1 0 0 1 -125.27 248.3)"  >
<path style="stroke: none; stroke-width: 1; stroke-dasharray: none; stroke-linecap: butt; stroke-dashoffset: 0; stroke-linejoin: miter; stroke-miterlimit: 4; fill: rgb(255,255,255); fill-rule: nonzero; opacity: 1;" vector-effect="non-scaling-stroke"  transform=" translate(-415.12, -788.51)" d="M 492.33 514 L 239.88 563.51 C 225.9954195663191 566.2316911364371 213.76146978481464 574.3593304562119 205.87118244702287 586.1037990345936 C 197.98089510923108 597.8482676129754 195.08105594008626 612.2468432703735 197.81 626.13 L 275.28 1020.94 C 278.0020487541024 1034.8282745811373 286.12991475102575 1047.0663023038003 297.87542806212 1054.9616577308652 C 309.62094137321435 1062.85701315793 324.021891647787 1065.7628967402322 337.90999999999997 1063.04 L 590.3599999999999 1013.48 C 604.2451047645869 1010.7630965418114 616.4806816620355 1002.638018694294 624.3716110252695 990.8944701458728 C 632.2625403885036 979.1509215974515 635.1615220890943 964.7522363400666 632.43 950.87 L 555 556.06 C 549.3083762238745 527.1398282229842 521.2503129418677 508.30909355502183 492.33000000000004 514 Z M 472.12 779.37 C 472.12794478657185 780.3905492386737 471.9622486009449 781.4050156812874 471.63 782.37 Q 453.38 846.8 435.07 911.2 C 433.88 915.44 431.07 917.4000000000001 427.59999999999997 916.61 C 425.112326470713 916.2001624277854 423.2375373605487 914.126280668754 423.08 911.61 C 422.58 906.79 422.21 901.96 421.8 897.14 Q 419.93 874.25 418.05 851.31 C 417.44 844 416.86 836.7099999999999 416.24 829.0999999999999 C 415.24 829.2799999999999 414.39 829.4399999999999 413.55 829.6299999999999 Q 393.66 833.4799999999999 373.8 837.4199999999998 C 367.25 838.6799999999998 363.48 834.7099999999998 365.24 828.2599999999999 Q 383.24 762.7399999999999 401.32 697.2599999999999 C 401.88 695.2599999999999 403.54 693.6499999999999 404.68 691.8399999999999 L 407.68 691.2499999999999 C 411.90000000000003 692.2499999999999 413.35 695.2499999999999 413.68 699.3399999999999 Q 416.16 731.8 418.79 764.2599999999999 C 419.24 769.9699999999999 419.66 775.6899999999998 420.11 781.3999999999999 C 420.11 781.8799999999999 420.31 782.3999999999999 420.44 783.0299999999999 C 421.27 782.8799999999999 422.05 782.7099999999998 422.82 782.5799999999998 L 464.51 774.3799999999998 C 468.93 773.49 472 775.52 472.12 779.37 Z" stroke-linecap="round" />
</g>
		<g transform="matrix(1 0 0 1 254.29 239.55)"  >
<path style="stroke: none; stroke-width: 1; stroke-dasharray: none; stroke-linecap: butt; stroke-dashoffset: 0; stroke-linejoin: miter; stroke-miterlimit: 4; fill: rgb(255,255,255); fill-rule: nonzero; opacity: 1;" vector-effect="non-scaling-stroke"  transform=" translate(-794.68, -779.77)" d="M 845 720.11 L 739.66 921.73 L 776.78 637.81 L 827.5 664.3 C 837.2231145344861 669.378596942734 844.529795830964 678.1125672853041 847.8118827142329 688.5796112256033 C 851.0939695975018 699.0466551659026 850.0824665711684 710.3889076380051 845 720.11 Z" stroke-linecap="round" />
</g>
		<g transform="matrix(1 0 0 1 293.87 280.19)"  >
<path style="stroke: none; stroke-width: 1; stroke-dasharray: none; stroke-linecap: butt; stroke-dashoffset: 0; stroke-linejoin: miter; stroke-miterlimit: 4; fill: rgb(255,255,255); fill-rule: nonzero; opacity: 1;" vector-effect="non-scaling-stroke"  transform=" translate(-834.26, -820.41)" d="M 871.89 819.25 L 810.89 880.25 C 803.8513434038914 887.3055300301539 794.4928145603934 891.5690967014514 784.55 892.25 L 859.6199999999999 748.5699999999999 L 871.8499999999999 760.8 C 887.9962697527574 776.9316744095113 888.0141753589467 803.096241453543 871.89 819.25 Z" stroke-linecap="round" />
</g>
</g>
</g>
<g transform="matrix(3.32 0 0 3.32 407.68 809.57)" id="40ee216d-5e7e-42a4-afe1-e20e88a72193"  >
<circle style="stroke: rgb(0,0,0); stroke-width: 0; stroke-dasharray: none; stroke-linecap: butt; stroke-dashoffset: 0; stroke-linejoin: miter; stroke-miterlimit: 4; fill: rgb(255,255,255); fill-rule: nonzero; opacity: 1;" vector-effect="non-scaling-stroke"  cx="0" cy="0" r="35" />
</g>
<g transform="matrix(1.34 -0.22 0.22 1.34 420.26 786.61)" style="" id="7f223410-ae26-46f9-b37e-5cefc9ee690e"  >
		<text xml:space="preserve" font-family="Raleway" font-size="105" font-style="normal" font-weight="900" style="stroke: none; stroke-width: 1; stroke-dasharray: none; stroke-linecap: butt; stroke-dashoffset: 0; stroke-linejoin: miter; stroke-miterlimit: 4; fill: rgb(104,27,137); fill-rule: nonzero; opacity: 1; white-space: pre;" ><tspan x="-36.23" y="32.98" >K</tspan></text>
</g>
<g transform="matrix(NaN NaN NaN NaN 0 0)"  >
<g style=""   >
</g>
</g>
<g transform="matrix(NaN NaN NaN NaN 0 0)"  >
<g style=""   >
</g>
</g>
</svg>