<svg id="Layer_1" data-name="Layer 1" xmlns="http://www.w3.org/2000/svg" viewBox="0 0 1049.51 997.2"><defs><style>.cls-1{fill:#fff;}</style></defs><path class="cls-1" d="M1061.6,341.43l-264.75-288c-19.4-21.1-54.66-27.06-78.7-13.3l-210.31,120c-24.07,13.78-27.89,42-8.48,63.11l264.76,288c19.38,21.1,54.66,27.07,78.71,13.31l210.3-120C1077.2,390.75,1081,362.52,1061.6,341.43Zm-225.94-28L787.88,289l-4.71,22.6,16.06,25.09-16.76,10.73L729.3,264.4l16.77-10.74,23.61,36.88L780,232l22.54-14.43-10.56,52.38,65.44,29.58Z" transform="translate(-24.49 -32.67)"/><path class="cls-1" d="M347.13,437.67a5.09,5.09,0,0,1-3.6-8.69l45.31-45.3a5.08,5.08,0,1,1,7.19,7.19l-45.3,45.31A5.11,5.11,0,0,1,347.13,437.67Z" transform="translate(-24.49 -32.67)"/><path class="cls-1" d="M360.33,485.18a5.09,5.09,0,0,1-3.6-8.69l31.32-31.32a5.09,5.09,0,0,1,7.2,7.2l-31.32,31.32A5,5,0,0,1,360.33,485.18Z" transform="translate(-24.49 -32.67)"/><path class="cls-1" d="M279.21,478.27a8.86,8.86,0,0,1,6.49,2.79l46.24,48.81a8.9,8.9,0,0,1-.17,12.46L158.85,715.24l-.67.67-.57.75c-40.3,52.37-38.12,96.45-29.2,124.21a123,123,0,0,0,33.18,51.92c5.54,6.17,37,38.57,86.32,38.57,29.74,0,60-11.64,89.8-34.6l.75-.58.67-.67L512,722.6a8.91,8.91,0,0,1,12.45-.17l48.82,46.24a8.91,8.91,0,0,1,.17,12.79L391.74,963.21c-2.52,2.07-17.65,14.2-41.21,26.13-23.4,11.85-60.23,26-102.83,26-52.11,0-101.54-20.76-146.93-61.72-30.28-33.56-49.65-69.55-57.56-107-6.34-29.94-5.44-61,2.67-92.47,13.32-51.64,42.06-87.61,45.28-91.52L272.9,480.88a8.9,8.9,0,0,1,6.31-2.61Zm0-14.55a23.38,23.38,0,0,0-16.59,6.88L80.41,652.8s-132.19,154,9.93,311a.93.93,0,0,0,.13.15.47.47,0,0,0,.15.13c54.88,49.69,109.38,65.84,157.08,65.84,88.71,0,153.86-55.92,153.86-55.92l182.21-182.2a23.48,23.48,0,0,0-.46-33.64l-48.82-46.24a23.46,23.46,0,0,0-32.73.45L328.84,885.23c-30.7,23.61-58,31.58-80.93,31.58-45,0-73-30.8-75.89-34.18a.45.45,0,0,1-.11-.13l0,0a.75.75,0,0,1-.14-.12c-5.1-4.42-72.64-65.79-2.6-156.83L342.05,552.61a23.47,23.47,0,0,0,.44-32.74l-46.23-48.81a23.42,23.42,0,0,0-17.05-7.34Z" transform="translate(-24.49 -32.67)"/><path class="cls-1" d="M544.73,830.78,401.56,974s-154,132.19-310.94-9.92a.47.47,0,0,1-.15-.13.93.93,0,0,1-.13-.15c-142.12-157-9.93-311-9.93-311L223.58,509.64l80.72,80.72L169.14,725.52c-70,91-2.5,152.41,2.6,156.83a.75.75,0,0,0,.14.12l0,0a.45.45,0,0,0,.11.13c4.42,5.1,65.77,72.63,156.82,2.6L464,750.06Z" transform="translate(-24.49 -32.67)"/><path class="cls-1" d="M569.6,697.22a5.09,5.09,0,0,1-3.6-8.69l45.31-45.31a5.09,5.09,0,0,1,7.2,7.2L573.2,695.73A5.11,5.11,0,0,1,569.6,697.22Z" transform="translate(-24.49 -32.67)"/><path class="cls-1" d="M650.45,673.21a5.09,5.09,0,0,1-3.6-8.69l31.32-31.32a5.09,5.09,0,1,1,7.2,7.2l-31.32,31.32A5.06,5.06,0,0,1,650.45,673.21Z" transform="translate(-24.49 -32.67)"/></svg>