<svg id="Layer_1" data-name="Layer 1" xmlns="http://www.w3.org/2000/svg" viewBox="0 0 1029.25 1030.12"><defs><style>.cls-1{fill:#fff;}</style></defs><path class="cls-1" d="M375.32,421.15a5.38,5.38,0,0,1-3.8-9.18l47.83-47.82a5.37,5.37,0,0,1,7.6,7.6l-47.83,47.82A5.35,5.35,0,0,1,375.32,421.15Z" transform="translate(-34.75 -16.14)"/><path class="cls-1" d="M389.26,471.3a5.38,5.38,0,0,1-3.8-9.17l33.06-33.07a5.37,5.37,0,0,1,7.6,7.6l-33.06,33.06A5.35,5.35,0,0,1,389.26,471.3Z" transform="translate(-34.75 -16.14)"/><path class="cls-1" d="M303.63,464a9.34,9.34,0,0,1,6.85,2.94l48.81,51.53a9.39,9.39,0,0,1-.18,13.15L176.58,714.14l-.7.71-.61.79C132.73,770.93,135,817.46,144.45,846.76a129.82,129.82,0,0,0,35,54.81c5.85,6.51,39.05,40.71,91.12,40.71,31.39,0,63.28-12.29,94.79-36.53l.79-.6.71-.71L549.4,721.91a9.43,9.43,0,0,1,13.15-.18l51.53,48.81a9.43,9.43,0,0,1,.18,13.51L422.41,975.9c-2.65,2.18-18.63,15-43.5,27.58-24.7,12.51-63.58,27.43-108.54,27.43-55,0-107.19-21.92-155.1-65.16-32-35.42-52.41-73.41-60.76-112.92-6.69-31.61-5.74-64.45,2.82-97.62,14.06-54.5,44.4-92.47,47.79-96.6L297,466.76a9.37,9.37,0,0,1,6.66-2.76Zm0-15.35a24.68,24.68,0,0,0-17.51,7.25L93.78,648.24S-45.76,810.77,104.26,976.47a1.07,1.07,0,0,0,.14.16.61.61,0,0,0,.15.13c57.94,52.46,115.46,69.5,165.82,69.5,93.64,0,162.41-59,162.41-59L625.12,794.91a24.79,24.79,0,0,0-.48-35.51l-51.53-48.81a24.77,24.77,0,0,0-34.56.47L356,893.58c-32.41,24.93-61.25,33.34-85.43,33.34-47.52,0-77-32.51-80.11-36.08a.58.58,0,0,1-.11-.13l0,0a.61.61,0,0,1-.16-.13c-5.38-4.66-76.67-69.44-2.74-165.54L370,542.47a24.76,24.76,0,0,0,.47-34.55l-48.8-51.53a24.69,24.69,0,0,0-18-7.74Z" transform="translate(-34.75 -16.14)"/><path class="cls-1" d="M583.91,836.11,432.78,987.24s-162.54,139.53-328.23-10.48a.61.61,0,0,1-.15-.13,1.07,1.07,0,0,1-.14-.16c-150-165.7-10.48-328.23-10.48-328.23L244.91,497.11l85.21,85.21L187.44,725c-73.93,96.1-2.64,160.88,2.74,165.54a.61.61,0,0,0,.16.13l0,0a.58.58,0,0,0,.11.13c4.67,5.38,69.43,76.66,165.54,2.74L498.7,750.9Z" transform="translate(-34.75 -16.14)"/><path class="cls-1" d="M610.16,695.12a5.37,5.37,0,0,1-3.8-9.17l47.83-47.83a5.37,5.37,0,0,1,7.6,7.6L614,693.55A5.34,5.34,0,0,1,610.16,695.12Z" transform="translate(-34.75 -16.14)"/><path class="cls-1" d="M695.51,669.78a5.37,5.37,0,0,1-3.8-9.17l33.06-33.06a5.37,5.37,0,0,1,7.6,7.6l-33.06,33.06A5.36,5.36,0,0,1,695.51,669.78Z" transform="translate(-34.75 -16.14)"/><ellipse class="cls-1" cx="597.21" cy="214.62" rx="52.17" ry="66.39" transform="translate(-69.38 257.69) rotate(-25.12)"/><ellipse class="cls-1" cx="710.08" cy="97.95" rx="62.99" ry="80.17" transform="translate(-41.43 90.43) rotate(-8.54)"/><ellipse class="cls-1" cx="890.29" cy="94.16" rx="78.69" ry="61.83" transform="translate(572.91 927.49) rotate(-77.63)"/><ellipse class="cls-1" cx="1006.96" cy="221.25" rx="66.01" ry="51.87" transform="translate(206.66 895.66) rotate(-54.44)"/><path class="cls-1" d="M884.6,495a339.81,339.81,0,0,0-87.27-21.9s-41.71,3.6-87.27,21.9-166-61.36-63.53-162.85c0,0,56-32.24,72.07-83.47s78.73-54.95,78.73-54.95,62.59,3.76,78.73,54.95,72.07,83.47,72.07,83.47C1050.6,433.63,930.11,513.3,884.6,495Z" transform="translate(-34.75 -16.14)"/></svg>