<svg id="Layer_1" data-name="Layer 1" xmlns="http://www.w3.org/2000/svg" viewBox="0 0 853.11 939.63"><defs><style>.cls-1{fill:#fff;}</style></defs><ellipse class="cls-1" cx="350.43" cy="816.06" rx="33.15" ry="42.19" transform="translate(-468.18 169.69) rotate(-25.12)"/><ellipse class="cls-1" cx="422.15" cy="741.92" rx="40.03" ry="50.94" transform="translate(-260.42 14.68) rotate(-8.54)"/><ellipse class="cls-1" cx="536.66" cy="739.51" rx="50" ry="39.29" transform="translate(-455.52 1049.09) rotate(-77.63)"/><ellipse class="cls-1" cx="610.79" cy="820.27" rx="41.95" ry="32.96" transform="translate(-566.6 783.94) rotate(-54.44)"/><path class="cls-1" d="M477.59,980.29a216.23,216.23,0,0,0-55.44,13.93c-28.93,11.63-105.47-39-40.38-103.48,0,0,35.55-20.49,45.8-53s50-34.91,50-34.91Z" transform="translate(-154.89 -56.26)"/><path class="cls-1" d="M477.59,980.29A216.35,216.35,0,0,1,533,994.22c28.93,11.63,105.47-39,40.38-103.48,0,0-35.56-20.49-45.8-53s-50-34.91-50-34.91Z" transform="translate(-154.89 -56.26)"/><path class="cls-1" d="M904.4,69.86a96.91,96.91,0,0,0-112.25,9.46c-69.86,59.25-233.69,155.46-583,191-48.55,0-39.84,122.61,74.68,72.82,24.9-5,69.71-12.45,110.17-13.69,10,17.43-212.24,114.52-230.91,122S155,549.18,224.66,510s188.58-97.1,222.19-102.7C437.52,421,318,478.85,246.44,602.7c-18.05,45.44,58.51,97.72,106.43-6.22,44.19-43.57,268.88-277,394.6-103.32,5,19.3-21.78,145-23,157.47s40.45,88.38,94,13.69c0,0,72.82-281.32,129.46-356,15.61-20.58,30.13-41.5,43-61a103.43,103.43,0,0,0-33.39-145.88Z" transform="translate(-154.89 -56.26)"/></svg>