<svg id="Layer_1" data-name="Layer 1" xmlns="http://www.w3.org/2000/svg" viewBox="0 0 754.59 1063.99"><defs><style>.cls-1{fill:#fff;}</style></defs><ellipse class="cls-1" cx="80.66" cy="797.48" rx="49.12" ry="62.52" transform="translate(-330.91 109.67) rotate(-25.12)"/><ellipse class="cls-1" cx="186.91" cy="687.66" rx="59.31" ry="75.49" transform="translate(-100.04 35.38) rotate(-8.54)"/><ellipse class="cls-1" cx="356.65" cy="684.11" rx="74.1" ry="58.22" transform="translate(-387.97 885.92) rotate(-77.63)"/><ellipse class="cls-1" cx="466.49" cy="803.8" rx="62.16" ry="48.84" transform="translate(-458.69 715.84) rotate(-54.44)"/><path class="cls-1" d="M351.28,1061.51a321.12,321.12,0,0,0-82.18-20.68,321.15,321.15,0,0,0-82.17,20.68c-42.84,17.24-156.3-57.83-59.84-153.4,0,0,52.73-30.33,67.89-78.56s74.12-51.72,74.12-51.72,58.95,3.5,74.12,51.72,67.9,78.56,67.9,78.56C507.6,1003.68,394.11,1078.75,351.28,1061.51Z" transform="translate(0.01 0)"/><path class="cls-1" d="M663,12a85.71,85.71,0,0,0-99.29,8.37C501.88,72.8,357,157.9,47.94,189.4,5,189.4,12.71,297.86,114,253.81c22-4.4,61.66-11,97.44-12.11C220.26,257.12,23.72,343,7.2,349.61S.05,436,61.71,401.36s166.81-85.88,196.54-90.84C250,322.63,144.25,373.83,81,483.39c-16,40.19,51.76,86.43,94.15-5.51,39.08-38.53,237.83-245,349-91.39,4.4,17.07-19.27,128.28-20.37,139.29s35.85,78.14,83.17,12.05c0,0,64.41-248.84,114.51-314.91,13.81-18.2,26.65-36.7,38-54A91.49,91.49,0,0,0,713.48,42.16c-1.17-.77-2.36-1.52-3.57-2.24Z" transform="translate(0.01 0)"/></svg>