<svg id="Layer_1" data-name="Layer 1" xmlns="http://www.w3.org/2000/svg" viewBox="0 0 749.38 1060"><defs><style>.cls-1,.cls-2,.cls-3{fill:#fff;}.cls-2,.cls-3{stroke:#fff;stroke-miterlimit:10;}.cls-2{stroke-width:3px;}.cls-3{stroke-width:6px;}</style></defs><path class="cls-1" d="M886.54,526,784.1,971.93c-7.5,32.68-39.1,56.88-70.51,54l-274.4-24.66c-31.44-2.84-50.85-31.6-43.32-64.26L456,675.43l77.8,7c37.26,3.4,74.75-25.32,83.65-64.08L657.24,445l186,16.69C874.68,464.57,894.09,493.32,886.54,526Z" transform="translate(-165.62 -10.31)"/><path class="cls-1" d="M631.62,56.74c-.85-.11-1.71-.21-2.58-.29L353.21,31.69c-31.56-2.88-63.3,21.42-70.84,54.26l-103,448.23c-.18.81-.35,1.61-.49,2.42-11.12-11.52-16-28.89-11.72-47.61L265.22,62.2c7.18-31.26,37.4-54.41,67.46-51.67L595.31,34.1C611.48,35.57,624.33,44.21,631.62,56.74Z" transform="translate(-165.62 -10.31)"/><path class="cls-1" d="M457.85,1024.75c.83.11,1.68.21,2.54.29L731,1049.34c30.95,2.82,62.09-21,69.49-53.24l101-439.71c.18-.79.35-1.58.49-2.37,10.9,11.29,15.73,28.34,11.5,46.7l-96.19,418.69c-7,30.66-36.69,53.37-66.18,50.68L493.48,1047C477.61,1045.53,465,1037,457.85,1024.75Z" transform="translate(-165.62 -10.31)"/><path class="cls-1" d="M690.25,145.2l-102.45,446c-7.5,32.67-39.09,56.87-70.5,54L242.89,620.5c-31.44-2.84-50.84-31.6-43.32-64.27L302,110.27c7.49-32.67,39.07-56.86,70.48-54L647,80.92C678.38,83.78,697.79,112.53,690.25,145.2Z" transform="translate(-165.62 -10.31)"/><path class="cls-2" d="M885,361.84a8.64,8.64,0,0,1-2.35,1.23L829,381.57l-.58.09a26.46,26.46,0,0,1-3,.19c-4,0-5.93-1.5-8.38-5.93l-.41-.73-11.28-55.82a9.2,9.2,0,0,1,18-3.65l6.95,34.36c10.53-18.37,14.27-37.39,11.17-56.67-9.35-58-77-102-77.72-102.49a9.22,9.22,0,0,1-4-5.76,9.08,9.08,0,0,1,1.25-6.94,9.21,9.21,0,0,1,12.68-2.81,249.85,249.85,0,0,1,38.69,32c18.44,18.59,41.63,48.08,47.26,83,3.61,22.27-.17,44.08-11.22,65l28.2-9.74A9.2,9.2,0,0,1,885,361.84Z" transform="translate(-165.62 -10.31)"/><path class="cls-3" d="M185.49,726.86a8.84,8.84,0,0,1,2.34-1.22l53.65-18.51.58-.08a26.61,26.61,0,0,1,3-.2c4,0,5.93,1.51,8.38,5.93l.41.73,11.29,55.82a9.2,9.2,0,0,1-18,3.66l-6.94-34.37C229.66,757,225.92,776,229,795.3c9.35,57.94,77,102,77.72,102.48a9.2,9.2,0,0,1-9.9,15.52,250.45,250.45,0,0,1-38.69-32c-18.44-18.59-41.64-48.08-47.27-83-3.61-22.26.18-44.08,11.22-65L193.89,743a9.19,9.19,0,0,1-8.4-16.14Z" transform="translate(-165.62 -10.31)"/><path class="cls-1" d="M330.87,838l0,0,0,0Z" transform="translate(-165.62 -10.31)"/><path class="cls-1" d="M330.87,838l0,0,0,0Z" transform="translate(-165.62 -10.31)"/><path class="cls-1" d="M540.34,540.28l0,0,0,0Z" transform="translate(-165.62 -10.31)"/><path class="cls-1" d="M540.34,540.28l0,0,0,0Z" transform="translate(-165.62 -10.31)"/></svg>