<svg id="Layer_1" data-name="Layer 1" xmlns="http://www.w3.org/2000/svg" viewBox="0 0 744.64 1061.65"><defs><style>.cls-1{fill:#fff;}</style></defs><path class="cls-1" d="M714.79,1038a21.84,21.84,0,0,1-38.92-13.63L676.1,511a21.85,21.85,0,1,1,43.69,0l-.23,513.31A21.79,21.79,0,0,1,714.79,1038Z" transform="translate(-167.36 -9.34)"/><path class="cls-1" d="M697.71,1071h0a46.66,46.66,0,0,1-46.62-46.66L651.3,511a46.7,46.7,0,0,1,46.64-46.62h0a46.62,46.62,0,0,1,46.62,46.66l-.23,513.31a46.75,46.75,0,0,1-10.19,29.08h0A46.45,46.45,0,0,1,697.71,1071Z" transform="translate(-167.36 -9.34)"/><path class="cls-1" d="M882.37,904.33a22.64,22.64,0,0,1-3.46,3.46L711.33,1041.42a21.85,21.85,0,1,1-27.24-34.16L851.67,873.63a21.85,21.85,0,0,1,30.7,30.7Z" transform="translate(-167.36 -9.34)"/><path class="cls-1" d="M697.8,1071a47.39,47.39,0,0,1-5.31-.3,46.63,46.63,0,0,1-23.86-82.8L836.21,854.24a46.64,46.64,0,0,1,65.53,65.57,47.06,47.06,0,0,1-7.37,7.36L726.79,1060.8A46.29,46.29,0,0,1,697.8,1071Z" transform="translate(-167.36 -9.34)"/><path class="cls-1" d="M714.78,1038a21.84,21.84,0,0,1-30.7,3.43L516.62,907.62a21.84,21.84,0,0,1,27.27-34.13l167.46,133.78A21.85,21.85,0,0,1,714.78,1038Z" transform="translate(-167.36 -9.34)"/><path class="cls-1" d="M697.62,1071a46.33,46.33,0,0,1-29-10.2L501.14,927a46.64,46.64,0,1,1,58.23-72.88L726.82,987.9a46.64,46.64,0,0,1-29.2,83.08Z" transform="translate(-167.36 -9.34)"/><path class="cls-1" d="M398.4,582.91a21.84,21.84,0,0,1-38.92-13.63L359.71,56a21.85,21.85,0,1,1,43.69,0l-.23,513.31A21.75,21.75,0,0,1,398.4,582.91Z" transform="translate(-167.36 -9.34)"/><path class="cls-1" d="M381.33,615.93h0a46.7,46.7,0,0,1-46.62-46.66L334.91,56A46.71,46.71,0,0,1,381.56,9.34h0A46.62,46.62,0,0,1,428.19,56L428,569.31a46.7,46.7,0,0,1-10.19,29.07h0A46.41,46.41,0,0,1,381.33,615.93Z" transform="translate(-167.36 -9.34)"/><path class="cls-1" d="M566.08,203.39a21.84,21.84,0,0,1-30.7,3.44L367.92,73a21.84,21.84,0,0,1,27.27-34.13L562.65,172.69A21.85,21.85,0,0,1,566.08,203.39Z" transform="translate(-167.36 -9.34)"/><path class="cls-1" d="M549,236.38A46.43,46.43,0,0,1,519.9,226.2L352.44,92.42a46.64,46.64,0,1,1,58.23-72.88L578.12,153.32a46.7,46.7,0,0,1,7.33,65.55h0A46.59,46.59,0,0,1,549,236.38Z" transform="translate(-167.36 -9.34)"/><path class="cls-1" d="M398.64,69.6a22.27,22.27,0,0,1-3.47,3.46L227.6,206.69a21.85,21.85,0,0,1-27.24-34.16L367.93,38.9a21.85,21.85,0,0,1,30.71,30.7Z" transform="translate(-167.36 -9.34)"/><path class="cls-1" d="M214,236.23a46.62,46.62,0,0,1-29.13-83.08L352.47,19.51A46.64,46.64,0,0,1,418,85.07h0a46.76,46.76,0,0,1-7.38,7.37L243.06,226.07A46.43,46.43,0,0,1,214,236.23Z" transform="translate(-167.36 -9.34)"/></svg>