<svg id="Layer_1" data-name="Layer 1" xmlns="http://www.w3.org/2000/svg" viewBox="0 0 716.4 1042.75"><defs><style>.cls-1{fill:#fff;stroke:#fff;stroke-miterlimit:10;}</style></defs><path class="cls-1" d="M720.6,1052.72a22.49,22.49,0,0,1-40.07-14l.24-528.37a22.49,22.49,0,1,1,45,0l-.24,528.37A22.4,22.4,0,0,1,720.6,1052.72Z" transform="translate(-182.1 -18.92)"/><path class="cls-1" d="M893.1,915.16a22.26,22.26,0,0,1-3.57,3.56L717,1056.27a22.49,22.49,0,0,1-28-35.16L861.49,883.56a22.49,22.49,0,0,1,31.61,31.6Z" transform="translate(-182.1 -18.92)"/><path class="cls-1" d="M720.59,1052.73a22.5,22.5,0,0,1-31.61,3.53L516.61,918.55a22.48,22.48,0,0,1,28.07-35.13l172.37,137.7A22.49,22.49,0,0,1,720.59,1052.73Z" transform="translate(-182.1 -18.92)"/><path class="cls-1" d="M394.92,584.31a22.49,22.49,0,0,1-40.06-14L355.1,41.9a22.49,22.49,0,1,1,45,0l-.24,528.38A22.38,22.38,0,0,1,394.92,584.31Z" transform="translate(-182.1 -18.92)"/><path class="cls-1" d="M567.52,193.65a22.48,22.48,0,0,1-31.6,3.54L363.55,59.48a22.49,22.49,0,0,1,28.07-35.14L564,162.05A22.49,22.49,0,0,1,567.52,193.65Z" transform="translate(-182.1 -18.92)"/><path class="cls-1" d="M395.17,55.93a22.26,22.26,0,0,1-3.57,3.56L219.11,197a22.49,22.49,0,1,1-28-35.16L363.56,24.33a22.49,22.49,0,0,1,31.61,31.6Z" transform="translate(-182.1 -18.92)"/></svg>