<svg id="Layer_1" data-name="Layer 1" xmlns="http://www.w3.org/2000/svg" viewBox="0 0 751.05 1062.35"><defs><style>.cls-1{fill:#fff;}</style></defs><path class="cls-1" d="M887.48,526,784.81,973c-7.51,32.75-39.18,57-70.66,54.14l-275-24.72c-31.5-2.84-50.95-31.67-43.41-64.4L456,675.8l78,7c37.35,3.4,74.92-25.38,83.84-64.23l39.91-173.7L844.08,461.6C875.59,464.47,895,493.29,887.48,526Z" transform="translate(-164.95 -9.2)"/><path class="cls-1" d="M632,55.74c-.85-.11-1.71-.21-2.59-.29L353,30.63C321.33,27.74,289.53,52.11,282,85L178.75,534.24c-.18.81-.35,1.61-.49,2.42-11.14-11.54-16.07-28.95-11.75-47.71L264.78,61.21C272,29.88,302.27,6.68,332.39,9.42L595.6,33.05C611.81,34.52,624.69,43.19,632,55.74Z" transform="translate(-164.95 -9.2)"/><path class="cls-1" d="M457.84,1025.9c.83.11,1.68.21,2.54.29l271.19,24.35c31,2.83,62.23-21.07,69.64-53.36L902.46,556.5c.18-.79.35-1.58.49-2.38,10.93,11.32,15.76,28.4,11.53,46.8l-96.41,419.62c-7.05,30.73-36.77,53.49-66.32,50.8l-258.21-23.18C477.64,1046.72,465,1038.22,457.84,1025.9Z" transform="translate(-164.95 -9.2)"/><path class="cls-1" d="M690.75,144.4,588.07,591.33c-7.51,32.74-39.17,57-70.65,54.14l-275-24.72c-31.51-2.85-51-31.67-43.41-64.41L301.68,109.39c7.51-32.74,39.16-57,70.63-54.12l275,24.7C678.86,82.84,698.3,111.65,690.75,144.4Z" transform="translate(-164.95 -9.2)"/><path class="cls-1" d="M834,345.5a5.88,5.88,0,0,1-1.61.84l-36.92,12.74-.4.06a20.49,20.49,0,0,1-2.08.13c-2.79,0-4.09-1-5.77-4.08l-.28-.51-7.77-38.41a6.33,6.33,0,0,1,12.41-2.52l4.78,23.66c7.25-12.65,9.82-25.74,7.69-39-6.44-39.88-53-70.22-53.49-70.53a6.34,6.34,0,0,1,6.82-10.68,172.06,172.06,0,0,1,26.63,22c12.69,12.79,28.65,33.09,32.52,57.14,2.49,15.32-.11,30.34-7.72,44.73l19.41-6.7A6.33,6.33,0,0,1,834,345.5Z" transform="translate(-164.95 -9.2)"/><path class="cls-1" d="M244.33,735.86A6.08,6.08,0,0,1,246,735l36.92-12.74.4,0a18,18,0,0,1,2.08-.14c2.78,0,4.08,1,5.77,4.08l.28.51,7.77,38.41a6.33,6.33,0,0,1-12.41,2.52L282,744c-7.25,12.65-9.82,25.74-7.69,39,6.43,39.88,53,70.22,53.48,70.53a6.35,6.35,0,0,1,2.77,4,6.24,6.24,0,0,1-.86,4.78,6.34,6.34,0,0,1-8.72,1.94,171.53,171.53,0,0,1-26.63-22c-12.69-12.79-28.65-33.09-32.53-57.14-2.48-15.32.12-30.34,7.72-44.73l-19.4,6.7a6.33,6.33,0,0,1-5.79-11.11Z" transform="translate(-164.95 -9.2)"/><path class="cls-1" d="M330.57,838.71l0,0,0,0Z" transform="translate(-164.95 -9.2)"/><path class="cls-1" d="M330.57,838.71l0,0,0,0Z" transform="translate(-164.95 -9.2)"/><path class="cls-1" d="M540.51,540.35l0,0,0,0Z" transform="translate(-164.95 -9.2)"/><path class="cls-1" d="M540.51,540.35l0,0,0,0Z" transform="translate(-164.95 -9.2)"/></svg>