<svg id="Layer_1" data-name="Layer 1" xmlns="http://www.w3.org/2000/svg" viewBox="0 0 1039.45 1039.45"><defs><style>.cls-1{fill:#fff;}</style></defs><path class="cls-1" d="M540.28,1059.78c-286.58,0-519.73-233.14-519.73-519.72S253.7,20.34,540.28,20.34,1060,253.48,1060,540.06,826.85,1059.78,540.28,1059.78Zm0-980.55C286.17,79.23,79.45,286,79.45,540.06s206.72,460.83,460.83,460.83,460.83-206.73,460.83-460.83S794.38,79.23,540.28,79.23Z" transform="translate(-20.55 -20.34)"/><path class="cls-1" d="M352.55,399.93c19.48-3.87,38.24,9.74,42.6,29.11l10,44.18a.18.18,0,0,0,.29.09l98.76-98.77c14.05-14.05,37.18-15.53,51.59-1.85a36.13,36.13,0,0,1,.68,51.76L456.26,524.62a.17.17,0,0,0,.08.29L501.1,535c19.38,4.37,33,23.13,29.12,42.62a36.13,36.13,0,0,1-43.38,28.23L376.89,581.07a37.38,37.38,0,0,1-27.8-27.8L324.31,443.32A36.15,36.15,0,0,1,352.55,399.93Z" transform="translate(-20.55 -20.34)"/><path class="cls-1" d="M728,680.19c-19.49,3.87-38.24-9.74-42.61-29.11l-10-44.18a.17.17,0,0,0-.28-.09L576.4,705.58c-14,14-37.18,15.53-51.59,1.85a36.13,36.13,0,0,1-.69-51.76L624.3,555.5a.17.17,0,0,0-.08-.29l-44.76-10.09c-19.39-4.37-33-23.13-29.13-42.62a36.12,36.12,0,0,1,43.38-28.23l110,24.78a37.38,37.38,0,0,1,27.8,27.8L756.24,636.8A36.13,36.13,0,0,1,728,680.19Z" transform="translate(-20.55 -20.34)"/></svg>