<svg xmlns="http://www.w3.org/2000/svg" viewBox="0 0 1006.76 954.48"><path  fill="#EA7FFB" d="M694,106,242.32,47a94.43,94.43,0,0,0-105.91,81.42L44.05,834.82a94.47,94.47,0,0,0,81.42,105.95l451.73,59a94.43,94.43,0,0,0,105.91-81.42l92.35-706.45A94.48,94.48,0,0,0,694,106ZM510.59,540.17a16,16,0,0,1-2.51,4.76q-67,97.88-134,195.7c-4.39,6.44-10.15,8.16-15.59,4.87-4.13-2.57-5.81-6.28-4.76-11,1.88-8.37,4-16.69,6-25q9.72-39.47,19.51-79.06c3.09-12.61,6.23-25.17,9.47-38.3-1.78-.26-3.29-.47-4.81-.63q-35.55-4.71-71.11-9.31c-11.72-1.57-15.8-10.36-9.21-20.2Q370.75,462.15,438,362.37c2-3,5.76-4.82,8.69-7.22,1.83.26,3.61.47,5.44.73,6.49,4.13,7.27,9.89,5.49,16.95q-14.11,55.89-28,111.87c-2.46,9.84-5,19.68-7.43,29.52-.21.83-.21,1.72-.37,2.93,1.47.21,2.88.36,4.24.57l74.62,9.74C508.55,528.5,512.53,533.63,510.59,540.17Z" transform="translate(-43.24 -46.13)"/><path fill="#EA7FFB" d="M978.54,415.16,737.84,875.84l84.82-648.73,115.9,60.54A94.49,94.49,0,0,1,978.54,415.16Z" transform="translate(-43.24 -46.13)"/><path fill="#EA7FFB" d="M1022.33,641.68,883,781a94.12,94.12,0,0,1-60.17,27.41L994.39,480.15l27.94,27.94A94.46,94.46,0,0,1,1022.33,641.68Z" transform="translate(-43.24 -46.13)"/></svg>